<?xml version="1.0" encoding="utf-8"?>
<!DOCTYPE svg PUBLIC "-//W3C//DTD SVG 1.1//EN" "http://www.w3.org/Graphics/SVG/1.1/DTD/svg11.dtd"><svg version='1.1' xmlns='http://www.w3.org/2000/svg' width='1000px' height='1000px' viewBox='0 0 100 100'><g class="drawcontainer"><rect x="0" y="0" width="100%" height="100%" stroke="none" fill="white"></rect><svg class="svgcontainer" width="90" height="90" x="5" y="5" viewBox="0 0 1000 1000" preserveAspectRatio="none"><g class="container"><rect x="0" y="0" width="100%" height="100%" stroke="none" fill="white"></rect><line x1="9.226116094068653" y1="1000" x2="9.226116094068653" y2="0" class="break-lines" stroke-width="0.6666666666666666" stroke="#7c7c7c" style="stroke-dasharray: 3, 3;"></line><line x1="62.96414331146298" y1="1000" x2="62.96414331146298" y2="0" class="break-lines" stroke-width="0.6666666666666666" stroke="#7c7c7c" style="stroke-dasharray: 3, 3;"></line><line x1="76.2574753317581" y1="1000" x2="76.2574753317581" y2="0" class="break-lines" stroke-width="0.6666666666666666" stroke="#7c7c7c" style="stroke-dasharray: 3, 3;"></line><line x1="118.08288330381313" y1="1000" x2="118.08288330381313" y2="0" class="break-lines" stroke-width="0.6666666666666666" stroke="#7c7c7c" style="stroke-dasharray: 3, 3;"></line><line x1="142.68587360085684" y1="1000" x2="142.68587360085684" y2="0" class="break-lines" stroke-width="0.6666666666666666" stroke="#7c7c7c" style="stroke-dasharray: 3, 3;"></line><line x1="153.86612429255112" y1="1000" x2="153.86612429255112" y2="0" class="break-lines" stroke-width="0.6666666666666666" stroke="#7c7c7c" style="stroke-dasharray: 3, 3;"></line><line x1="198.62618952476146" y1="1000" x2="198.62618952476146" y2="0" class="break-lines" stroke-width="0.6666666666666666" stroke="#7c7c7c" style="stroke-dasharray: 3, 3;"></line><line x1="233.8936542708864" y1="1000" x2="233.8936542708864" y2="0" class="break-lines" stroke-width="0.6666666666666666" stroke="#7c7c7c" style="stroke-dasharray: 3, 3;"></line><line x1="251.3153031611816" y1="1000" x2="251.3153031611816" y2="0" class="break-lines" stroke-width="0.6666666666666666" stroke="#7c7c7c" style="stroke-dasharray: 3, 3;"></line><line x1="283.30147867233626" y1="1000" x2="283.30147867233626" y2="0" class="break-lines" stroke-width="0.6666666666666666" stroke="#7c7c7c" style="stroke-dasharray: 3, 3;"></line><line x1="310.91063540304134" y1="1000" x2="310.91063540304134" y2="0" class="break-lines" stroke-width="0.6666666666666666" stroke="#7c7c7c" style="stroke-dasharray: 3, 3;"></line><line x1="359.24464232160653" y1="1000" x2="359.24464232160653" y2="0" class="break-lines" stroke-width="0.6666666666666666" stroke="#7c7c7c" style="stroke-dasharray: 3, 3;"></line><line x1="399.4843754562817" y1="1000" x2="399.4843754562817" y2="0" class="break-lines" stroke-width="0.6666666666666666" stroke="#7c7c7c" style="stroke-dasharray: 3, 3;"></line><line x1="432.3886242515713" y1="1000" x2="432.3886242515713" y2="0" class="break-lines" stroke-width="0.6666666666666666" stroke="#7c7c7c" style="stroke-dasharray: 3, 3;"></line><line x1="463.9221049772364" y1="1000" x2="463.9221049772364" y2="0" class="break-lines" stroke-width="0.6666666666666666" stroke="#7c7c7c" style="stroke-dasharray: 3, 3;"></line><line x1="502.440687733682" y1="1000" x2="502.440687733682" y2="0" class="break-lines" stroke-width="0.6666666666666666" stroke="#7c7c7c" style="stroke-dasharray: 3, 3;"></line><line x1="511.96122609957564" y1="1000" x2="511.96122609957564" y2="0" class="break-lines" stroke-width="0.6666666666666666" stroke="#7c7c7c" style="stroke-dasharray: 3, 3;"></line><line x1="542.7014058821499" y1="1000" x2="542.7014058821499" y2="0" class="break-lines" stroke-width="0.6666666666666666" stroke="#7c7c7c" style="stroke-dasharray: 3, 3;"></line><line x1="552.1536376067628" y1="1000" x2="552.1536376067628" y2="0" class="break-lines" stroke-width="0.6666666666666666" stroke="#7c7c7c" style="stroke-dasharray: 3, 3;"></line><line x1="612.5859263625753" y1="1000" x2="612.5859263625753" y2="0" class="break-lines" stroke-width="0.6666666666666666" stroke="#7c7c7c" style="stroke-dasharray: 3, 3;"></line><line x1="636.2423576941111" y1="1000" x2="636.2423576941111" y2="0" class="break-lines" stroke-width="0.6666666666666666" stroke="#7c7c7c" style="stroke-dasharray: 3, 3;"></line><line x1="646.7486017681097" y1="1000" x2="646.7486017681097" y2="0" class="break-lines" stroke-width="0.6666666666666666" stroke="#7c7c7c" style="stroke-dasharray: 3, 3;"></line><line x1="689.6195522345859" y1="1000" x2="689.6195522345859" y2="0" class="break-lines" stroke-width="0.6666666666666666" stroke="#7c7c7c" style="stroke-dasharray: 3, 3;"></line><line x1="710.4472627008952" y1="1000" x2="710.4472627008952" y2="0" class="break-lines" stroke-width="0.6666666666666666" stroke="#7c7c7c" style="stroke-dasharray: 3, 3;"></line><line x1="730.2424514945944" y1="1000" x2="730.2424514945944" y2="0" class="break-lines" stroke-width="0.6666666666666666" stroke="#7c7c7c" style="stroke-dasharray: 3, 3;"></line><line x1="759.3951444807665" y1="1000" x2="759.3951444807665" y2="0" class="break-lines" stroke-width="0.6666666666666666" stroke="#7c7c7c" style="stroke-dasharray: 3, 3;"></line><line x1="788.4455249900542" y1="1000" x2="788.4455249900542" y2="0" class="break-lines" stroke-width="0.6666666666666666" stroke="#7c7c7c" style="stroke-dasharray: 3, 3;"></line><line x1="809.5251398990384" y1="1000" x2="809.5251398990384" y2="0" class="break-lines" stroke-width="0.6666666666666666" stroke="#7c7c7c" style="stroke-dasharray: 3, 3;"></line><line x1="830.7412838134203" y1="1000" x2="830.7412838134203" y2="0" class="break-lines" stroke-width="0.6666666666666666" stroke="#7c7c7c" style="stroke-dasharray: 3, 3;"></line><line x1="868.5959310732474" y1="1000" x2="868.5959310732474" y2="0" class="break-lines" stroke-width="0.6666666666666666" stroke="#7c7c7c" style="stroke-dasharray: 3, 3;"></line><line x1="900.4304076895158" y1="1000" x2="900.4304076895158" y2="0" class="break-lines" stroke-width="0.6666666666666666" stroke="#7c7c7c" style="stroke-dasharray: 3, 3;"></line><line x1="944.5935799089309" y1="1000" x2="944.5935799089309" y2="0" class="break-lines" stroke-width="0.6666666666666666" stroke="#7c7c7c" style="stroke-dasharray: 3, 3;"></line><line x1="985.4604615582148" y1="1000" x2="985.4604615582148" y2="0" class="break-lines" stroke-width="0.6666666666666666" stroke="#7c7c7c" style="stroke-dasharray: 3, 3;"></line><line x1="991.5039348375711" y1="1000" x2="991.5039348375711" y2="0" class="break-lines" stroke-width="0.6666666666666666" stroke="#7c7c7c" style="stroke-dasharray: 3, 3;"></line><line x1="993.354071415036" y1="1000" x2="993.354071415036" y2="0" class="break-lines" stroke-width="0.6666666666666666" stroke="#7c7c7c" style="stroke-dasharray: 3, 3;"></line><line x1="0" y1="991.1385812678644" x2="1000" y2="991.1385812678644" class="break-lines" stroke-width="0.6666666666666666" stroke="#7c7c7c" style="stroke-dasharray: 3, 3;"></line><line x1="0" y1="938.4044382683642" x2="1000" y2="938.4044382683642" class="break-lines" stroke-width="0.6666666666666666" stroke="#7c7c7c" style="stroke-dasharray: 3, 3;"></line><line x1="0" y1="925.3668449724715" x2="1000" y2="925.3668449724715" class="break-lines" stroke-width="0.6666666666666666" stroke="#7c7c7c" style="stroke-dasharray: 3, 3;"></line><line x1="0" y1="884.9772859993644" x2="1000" y2="884.9772859993644" class="break-lines" stroke-width="0.6666666666666666" stroke="#7c7c7c" style="stroke-dasharray: 3, 3;"></line><line x1="0" y1="861.0996283634154" x2="1000" y2="861.0996283634154" class="break-lines" stroke-width="0.6666666666666666" stroke="#7c7c7c" style="stroke-dasharray: 3, 3;"></line><line x1="0" y1="852.6749247810934" x2="1000" y2="852.6749247810934" class="break-lines" stroke-width="0.6666666666666666" stroke="#7c7c7c" style="stroke-dasharray: 3, 3;"></line><line x1="0" y1="808.9840775306496" x2="1000" y2="808.9840775306496" class="break-lines" stroke-width="0.6666666666666666" stroke="#7c7c7c" style="stroke-dasharray: 3, 3;"></line><line x1="0" y1="774.9062213061908" x2="1000" y2="774.9062213061908" class="break-lines" stroke-width="0.6666666666666666" stroke="#7c7c7c" style="stroke-dasharray: 3, 3;"></line><line x1="0" y1="758.1956182158345" x2="1000" y2="758.1956182158345" class="break-lines" stroke-width="0.6666666666666666" stroke="#7c7c7c" style="stroke-dasharray: 3, 3;"></line><line x1="0" y1="727.4901509571151" x2="1000" y2="727.4901509571151" class="break-lines" stroke-width="0.6666666666666666" stroke="#7c7c7c" style="stroke-dasharray: 3, 3;"></line><line x1="0" y1="700.9876322415171" x2="1000" y2="700.9876322415171" class="break-lines" stroke-width="0.6666666666666666" stroke="#7c7c7c" style="stroke-dasharray: 3, 3;"></line><line x1="0" y1="656.1516918222762" x2="1000" y2="656.1516918222762" class="break-lines" stroke-width="0.6666666666666666" stroke="#7c7c7c" style="stroke-dasharray: 3, 3;"></line><line x1="0" y1="617.5212075598555" x2="1000" y2="617.5212075598555" class="break-lines" stroke-width="0.6666666666666666" stroke="#7c7c7c" style="stroke-dasharray: 3, 3;"></line><line x1="0" y1="585.2010913915226" x2="1000" y2="585.2010913915226" class="break-lines" stroke-width="0.6666666666666666" stroke="#7c7c7c" style="stroke-dasharray: 3, 3;"></line><line x1="0" y1="554.6590990944206" x2="1000" y2="554.6590990944206" class="break-lines" stroke-width="0.6666666666666666" stroke="#7c7c7c" style="stroke-dasharray: 3, 3;"></line><line x1="0" y1="518.2749193454093" x2="1000" y2="518.2749193454093" class="break-lines" stroke-width="0.6666666666666666" stroke="#7c7c7c" style="stroke-dasharray: 3, 3;"></line><line x1="0" y1="508.67580063803763" x2="1000" y2="508.67580063803763" class="break-lines" stroke-width="0.6666666666666666" stroke="#7c7c7c" style="stroke-dasharray: 3, 3;"></line><line x1="0" y1="476.1415735229448" x2="1000" y2="476.1415735229448" class="break-lines" stroke-width="0.6666666666666666" stroke="#7c7c7c" style="stroke-dasharray: 3, 3;"></line><line x1="0" y1="462.8728827677046" x2="1000" y2="462.8728827677046" class="break-lines" stroke-width="0.6666666666666666" stroke="#7c7c7c" style="stroke-dasharray: 3, 3;"></line><line x1="0" y1="445.5161450937753" x2="1000" y2="445.5161450937753" class="break-lines" stroke-width="0.6666666666666666" stroke="#7c7c7c" style="stroke-dasharray: 3, 3;"></line><line x1="0" y1="422.56465683463034" x2="1000" y2="422.56465683463034" class="break-lines" stroke-width="0.6666666666666666" stroke="#7c7c7c" style="stroke-dasharray: 3, 3;"></line><line x1="0" y1="412.0147383072025" x2="1000" y2="412.0147383072025" class="break-lines" stroke-width="0.6666666666666666" stroke="#7c7c7c" style="stroke-dasharray: 3, 3;"></line><line x1="0" y1="390.68052782271434" x2="1000" y2="390.68052782271434" class="break-lines" stroke-width="0.6666666666666666" stroke="#7c7c7c" style="stroke-dasharray: 3, 3;"></line><line x1="0" y1="371.4057702131713" x2="1000" y2="371.4057702131713" class="break-lines" stroke-width="0.6666666666666666" stroke="#7c7c7c" style="stroke-dasharray: 3, 3;"></line><line x1="0" y1="341.8078235751682" x2="1000" y2="341.8078235751682" class="break-lines" stroke-width="0.6666666666666666" stroke="#7c7c7c" style="stroke-dasharray: 3, 3;"></line><line x1="0" y1="296.0734179722722" x2="1000" y2="296.0734179722722" class="break-lines" stroke-width="0.6666666666666666" stroke="#7c7c7c" style="stroke-dasharray: 3, 3;"></line><line x1="0" y1="258.12696439412593" x2="1000" y2="258.12696439412593" class="break-lines" stroke-width="0.6666666666666666" stroke="#7c7c7c" style="stroke-dasharray: 3, 3;"></line><line x1="0" y1="225.5374906690456" x2="1000" y2="225.5374906690456" class="break-lines" stroke-width="0.6666666666666666" stroke="#7c7c7c" style="stroke-dasharray: 3, 3;"></line><line x1="0" y1="181.9773182332941" x2="1000" y2="181.9773182332941" class="break-lines" stroke-width="0.6666666666666666" stroke="#7c7c7c" style="stroke-dasharray: 3, 3;"></line><line x1="0" y1="143.84352768775238" x2="1000" y2="143.84352768775238" class="break-lines" stroke-width="0.6666666666666666" stroke="#7c7c7c" style="stroke-dasharray: 3, 3;"></line><line x1="0" y1="142.6142703934911" x2="1000" y2="142.6142703934911" class="break-lines" stroke-width="0.6666666666666666" stroke="#7c7c7c" style="stroke-dasharray: 3, 3;"></line><line x1="0" y1="97.09421840182051" x2="1000" y2="97.09421840182051" class="break-lines" stroke-width="0.6666666666666666" stroke="#7c7c7c" style="stroke-dasharray: 3, 3;"></line><line x1="0" y1="55.06590584885646" x2="1000" y2="55.06590584885646" class="break-lines" stroke-width="0.6666666666666666" stroke="#7c7c7c" style="stroke-dasharray: 3, 3;"></line><line x1="0" y1="52.589434089884094" x2="1000" y2="52.589434089884094" class="break-lines" stroke-width="0.6666666666666666" stroke="#7c7c7c" style="stroke-dasharray: 3, 3;"></line><line x1="0" y1="27.382743620260044" x2="1000" y2="27.382743620260044" class="break-lines" stroke-width="0.6666666666666666" stroke="#7c7c7c" style="stroke-dasharray: 3, 3;"></line><line x1="0" y1="22.63958353277303" x2="1000" y2="22.63958353277303" class="break-lines" stroke-width="0.6666666666666666" stroke="#7c7c7c" style="stroke-dasharray: 3, 3;"></line><line x1="0" y1="19.042123275247036" x2="1000" y2="19.042123275247036" class="break-lines" stroke-width="0.6666666666666666" stroke="#7c7c7c" style="stroke-dasharray: 3, 3;"></line><line x1="0" y1="16.559342240170622" x2="1000" y2="16.559342240170622" class="break-lines" stroke-width="0.6666666666666666" stroke="#7c7c7c" style="stroke-dasharray: 3, 3;"></line><line x1="0" y1="15.66362725379156" x2="1000" y2="15.66362725379156" class="break-lines" stroke-width="0.6666666666666666" stroke="#7c7c7c" style="stroke-dasharray: 3, 3;"></line><line x1="0" y1="11.083659019378956" x2="1000" y2="11.083659019378956" class="break-lines" stroke-width="0.6666666666666666" stroke="#7c7c7c" style="stroke-dasharray: 3, 3;"></line><line x1="0" y1="7.753170118022467" x2="1000" y2="7.753170118022467" class="break-lines" stroke-width="0.6666666666666666" stroke="#7c7c7c" style="stroke-dasharray: 3, 3;"></line><line x1="0" y1="6.472953285998187" x2="1000" y2="6.472953285998187" class="break-lines" stroke-width="0.6666666666666666" stroke="#7c7c7c" style="stroke-dasharray: 3, 3;"></line><line x1="0" y1="4.45430848534113" x2="1000" y2="4.45430848534113" class="break-lines" stroke-width="0.6666666666666666" stroke="#7c7c7c" style="stroke-dasharray: 3, 3;"></line><line x1="0" y1="2.220743856372451" x2="1000" y2="2.220743856372451" class="break-lines" stroke-width="0.6666666666666666" stroke="#7c7c7c" style="stroke-dasharray: 3, 3;"></line><line x1="0" y1="0.6230814593466221" x2="1000" y2="0.6230814593466221" class="break-lines" stroke-width="0.6666666666666666" stroke="#7c7c7c" style="stroke-dasharray: 3, 3;"></line><path d="" class="content-lines s_0 idy_0" stroke-width="2.5px" stroke="#ffd84b" stroke-linecap="round"></path><path d="M502.1936292279272 656.2882714722966 L502.2036582104225 656.2794951074598 M9.605363331284135 56.44411868088082 L9.596345674754788 56.43546364827671 M636.160650983782 656.3826275053134 L636.1692051159104 656.3741342490196" class="content-lines s_0_01 idy_0" stroke-width="2.5px" stroke="#ffd84b" stroke-linecap="round"></path><path d="M552.0294130672838 342.24021120867974 L552.0483332905627 342.22205181784193" class="content-lines s_0_02 idy_0" stroke-width="2.5px" stroke="#ffd84b" stroke-linecap="round"></path><path d="M788.4753591060485 584.9445546073712 L788.4992938205751 584.9212588186795 M432.3874443712778 852.4086409742429 L432.3649845071183 852.3878931624394 M289.07821472818443 366.4009369436791 L289.043155428033 366.3672874711244" class="content-lines s_0_03 idy_0" stroke-width="2.5px" stroke="#ffd84b" stroke-linecap="round"></path><path d="M946.0910586943672 56.095935616911106 L945.4394276636672 55.478435440271596 M997.1896936950695 10.745384754418865 L997.0186110525034 10.582799562508285 M945.1051844319346 341.7922526052962 L945.5401810130207 341.36953110632874 M945.10354102724 884.9657189931738 L945.2519109741551 884.8205247546268 M997.1491985178512 11.07577242424918 L996.7917790660666 10.733939080461028 M993.0357144286844 585.1896861616423 L992.7640891296744 584.9333515978788 M788.4017008648649 341.7651146292335 L788.1848135837596 341.55197434033596 M612.4208273986408 390.84092903443525 L612.578299279249 390.68877841454287 M993.0464597670723 884.9735651442262 L992.7946396015611 884.7328015503348 M730.318090249128 585.1310018050597 L730.5290781287655 584.9333515978788 M552.1600848097955 884.9617959176476 L552.3983363519307 884.7328015503348 M464.9341051604551 56.22450733956873 L464.55527930905873 55.83935838868206 M730.2603603919073 884.9617959176476 L730.4985276568788 884.7328015503348 M552.1600848097955 390.6670599448771 L552.7934698345273 390.0876985334047 M787.9838125480354 809.4419044889651 L788.4306500706391 808.9986778426595 M788.4306500706391 4.437402860908833 L787.983981102363 3.9969264118794854 M787.9838125480354 182.28805008141592 L788.2855669331132 181.98706525599334 M552.5482654263765 884.9062257550394 L552.7804068741343 884.6862908611066 M141.78726834156575 56.09229564992802 L142.05312065485379 55.83935838868206 M464.8138416476759 476.6560626339634 L464.55527930905873 476.41024353037324 M71.06595990151538 368.7960756626186 L71.01484580165513 368.7468956642696 M985.4402771774785 4.189925550137559 L984.9524388146738 3.7236053355283047 M984.952270260346 182.56379780242253 L985.4397293759138 182.0956980483993 M552.1219493931644 411.7268978069968 L551.7304819671942 411.3992603344426 M992.5048947123285 341.6263105549457 L992.0945913402433 341.249937968896 M141.83387361316133 476.6184091977275 L142.05312065485379 476.41024353037324 M944.857493847451 585.1872595169868 L945.0015235204291 585.0460692421213 M612.3345697214653 518.5178669194906 L612.3826498434279 518.4717202269609 M788.4306500706391 617.5118649779323 L788.0040390673535 617.0914487913874 M730.5290781287655 925.6405704895986 L730.2603603919073 925.3824968304988 M552.4463743353112 925.658082775195 L552.1600848097955 925.3824968304988 M710.4680791603602 341.5599822676986 L710.7933047355633 341.249937968896 M901.0632870512648 656.6163942737819 L901.0147855434831 656.5699240286314 M992.139173959907 518.5178669194906 L992.257667652246 518.4040977292309 M993.0705208973445 925.6405704895986 L993.3392807727846 925.3824968304988 M944.6149863085427 585.1872595169868 L944.7572461610804 585.0460692421213 M233.05897324035706 2.8355342798137144 L232.8908402985249 2.6744455187739504 M900.1732359241018 585.4497011364665 L900.4118245748923 585.2205854369208 M900.1732359241018 925.6116125300443 L900.4192409653089 925.3758235576964 M992.1982943903308 885.209273228419 L992.4199011926104 884.9953645020471 M992.5040519406903 885.209273228419 L992.7256587429698 884.9953645020471 M119.18004556107753 3.045236822116294 L119.22138350993403 3.005439849768095 M119.22138350993403 183.28196328818285 L119.18004556107753 183.2422876480673 M502.46635013006704 341.7929401546153 L502.62630818700814 341.6393335479296 M232.91696621931084 183.5863858602005 L233.05897324035706 183.4507364239646 M710.6899387941311 885.209273228419 L710.4680791603602 884.9953645020471 M552.3817758892388 885.209273228419 L552.1600848097955 884.9953645020471 M945.5771786879402 258.383946063131 L945.4925222768774 258.302329914555 M730.2603603919073 341.5599822676986 L730.5718066508251 341.25826944887945 M359.4333810299942 56.74684260163974 L359.5969630049798 56.58692671885001 M612.3571560013705 775.1263584205116 L612.5661212290763 774.9242593647958 M999.903334093092 55.06279165488229 L999.9670054903622 55.0019637621873 M612.5661212290763 4.437402860908833 L612.3426181906107 4.222483032597211 M831.0847553945919 182.60897383709016 L830.767999674353 182.32772572153146 M729.491836934981 508.9371098233447 L729.5981947157292 508.8473644151732 M198.74114357621968 656.2605672791477 L198.63432227107066 656.1532286972247 M552.8073334279766 391.0101874991482 L552.538404998209 390.7473414388927 M552.8069963193213 182.60897383709016 L552.4929796069069 182.3226297677552 M831.0850925032471 391.0101874991482 L830.8076942185149 390.7473414388927 M612.1342429030516 656.5746559857093 L612.200316199491 656.5033935209963 M552.4929796069069 3.96396448864391 L552.8069963193213 3.6782675245502787 M830.7982551761664 3.929870131235816 L831.0847553945919 3.6782675245502787 M999.9670054903622 7.877576100688657 L999.8408425761153 7.755556318600497 M256.3367472748241 366.38107890158255 L256.2833576915406 366.3321820117767 M730.4957465104725 518.4743490920041 L730.4225939322718 518.4040977292309 M502.67215496412933 508.88720183159904 L502.45632114757177 508.68097747996916 M117.20016428990317 476.81618073714105 L117.27083069177098 476.74847735125593 M831.0166173076387 258.4058667531847 L830.9535358505152 258.34532196903285 M787.9152109366813 97.59989070392476 L788.4341897115197 97.1029543225801 M830.7594876808066 852.6578573803506 L830.9834963822552 852.442533111263 M868.2993175951628 258.4058667531847 L868.352960009938 258.35450277464565 M552.7488872148634 258.4058667531847 L552.6857636191581 258.34532196903285 M552.4902405990825 852.6578573803506 L552.71576628948 852.442533111263 M9.816056240848289 342.199079581771 L9.723646330713452 342.10913195321154 M851.5411828156672 333.5961389495112 L851.6356575163157 333.4971318475716 M233.1778883185151 342.199079581771 L233.27029822864992 342.10913195321154 M398.56326819424925 342.199079581771 L398.47090042269633 342.10913195321154 M992.0335746736336 55.75551781583863 L992.7256587429698 55.08984874278974 M945.1122637136959 258.1015250693222 L945.5869969775259 257.66493125174134 M984.4646004518689 56.095935616911106 L984.5217403689427 56.04113389177712 M984.9752357874886 258.383946063131 L985.0153938560516 258.34532196903285 M463.7699004193674 656.2811533146408 L463.86041409331614 656.1938345511247 M512.114821230648 656.3544379832334 L512.0674574645781 656.3078868499276 M522.1894819486953 656.452069986535 L522.2269431480158 656.4161152015577 M730.2250903988463 142.3740730166861 L729.8168518172748 141.97311043146192 M552.4929796069069 411.9974686860718 L552.8976785475977 411.616566363332 M946.0706214821395 476.6469222724281 L946.0339609158754 476.6119785893907" class="content-lines s_0_05 idy_0" stroke-width="2.5px" stroke="#ffd84b" stroke-linecap="round"></path><path d="M330.4340724819848 11.822814981408442 L331.16846368756165 11.11771293270965 M944.8570303230499 4.437402860908833 L945.6002706308285 3.7236053355283047 M993.3392807727846 991.1270142616737 L992.1949654423596 990.0258433611391 M730.2250903988463 142.6078397851545 L729.4037251602014 141.84445782064904" class="content-lines s_1 idy_0" stroke-width="2.5px" stroke="#ffd84b" stroke-linecap="round"></path><path d="M330.4415310109834 15.663505921558908 L335.09131283215476 11.431154534029929 M996.8585687183984 13.337931016073753 L994.5426743950512 11.11771293270965 M996.5072593609912 13.369153843972981 L994.1614045059039 11.11771293270965 M330.42707747738723 13.293118978104417 L332.7230402514898 11.089968295483118 M996.4136274319808 15.663505921558908 L994.1713070726533 13.511314776700715 M996.7764827608322 15.645750971497137 L994.704739381088 13.657277452721928 M993.0331018366059 991.1270142616737 L991.5374771487737 989.692665049955 M999.3816163104292 10.636104856771567 L996.8592429357091 8.217629905062836 M999.7661730089658 10.636104856771567 L996.8461799753161 7.835028931064244 M999.9985251496331 10.489616407741664 L997.1526117429862 7.758710956652521 M807.9260228540285 54.92782976796536 L806.1918516539878 53.26266620544243 M200.26693948870138 411.1416720042738 L204.70859885380528 407.11603029730554 M808.114803700998 54.7403310242596 L806.1918516539878 52.893250000738135 M808.1289201259387 54.38474669409095 L806.281648972044 52.60868547081702 M808.1289201259387 54.01537093346428 L806.6665427792359 52.60868547081702 M996.6119737370445 681.8469063051064 L993.3544506622732 678.7247448474144" class="content-lines s_2 idy_0" stroke-width="2.5px" stroke="#ffd84b" stroke-linecap="round"></path><path d="M729.9620613705464 258.1822110041137 L729.969056375144 258.1754568431561 M730.1966468560552 258.1822110041137 L730.2036418606526 258.1754568431561 M822.0760322446115 368.25885697999456 L822.0720290793297 368.25501479262357" class="content-lines s_0 idy_1" stroke-width="2.5px" stroke="#d5670b" stroke-linecap="round"></path><path d="M198.5985466150267 617.0498722796251 L198.58969751282498 617.0412981351762 M802.4265165285849 110.56440155161272 L802.4141699240844 110.55218744018066 M326.7517082243682 110.56460377200074 L326.7391509269582 110.55218744018066 M759.4820763752526 463.76083249118653 L759.4897455971608 463.7534716690652 M819.2870902007106 77.79426413193926 L819.2990154193919 77.78281845798142" class="content-lines s_0_01 idy_1" stroke-width="2.5px" stroke="#d5670b" stroke-linecap="round"></path><path d="" class="content-lines s_0_02 idy_1" stroke-width="2.5px" stroke="#d5670b" stroke-linecap="round"></path><path d="M552.092157415752 476.1876393273195 L552.1189154152667 476.16151245319656 M764.1069121559316 367.62432984668976 L764.1389796167673 367.59310701879053 M991.5377299802652 476.47151630792166 L991.5609062003174 476.4492720652473 M992.0335746736336 476.3263625134522 L992.0576358039057 476.303309389226" class="content-lines s_0_03 idy_1" stroke-width="2.5px" stroke="#d5670b" stroke-linecap="round"></path><path d="M730.2250903988463 142.1406702449159 L730.0514373027836 141.97311043146192 M984.4850798026786 476.6469222724281 L984.5217403689427 476.6119785893907 M830.9322980052311 257.7332817428679 L831.1544526090756 257.53882661781665 M900.6118985618144 518.448141329726 L900.4518562277095 518.2917845257643 M759.5052525953048 411.43727776737694 L759.5443571993197 411.3992603344426 M900.4522776135286 0.5996643384223717 L901.0758443486748 0.00028310854315805045" class="content-lines s_0_05 idy_1" stroke-width="2.5px" stroke="#d5670b" stroke-linecap="round"></path><path d="" class="content-lines s_1 idy_1" stroke-width="2.5px" stroke="#d5670b" stroke-linecap="round"></path><path d="M310.93065122945 700.9723039361106 L358.93500802171116 656.691782034409" class="content-lines s_2 idy_1" stroke-width="2.5px" stroke="#d5670b" stroke-linecap="round"></path><path d="M805.8602631529156 11.079938164240957 L805.866415385875 11.073588444059283 M999.0759851758154 11.079938164240957 L999.0700014971839 11.074195105223112 M998.3071246102339 11.079938164240957 L998.30130948593 11.074195105223112 M997.9225679116975 11.079938164240957 L997.9163735401563 11.073588444059283 M890.9636802927249 368.90948085618015 L890.9667985477865 368.9064879944385" class="content-lines s_0 idy_2" stroke-width="2.5px" stroke="#2ebd40" stroke-linecap="round"></path><path d="M350.9010345485384 368.26836133822815 L350.89256469357395 368.2602320786327 M547.2916880256604 368.2948522090494 L547.2778665707929 368.28158655160007" class="content-lines s_0_01 idy_2" stroke-width="2.5px" stroke="#2ebd40" stroke-linecap="round"></path><path d="" class="content-lines s_0_02 idy_2" stroke-width="2.5px" stroke="#2ebd40" stroke-linecap="round"></path><path d="M992.1031454723717 341.8505729651806 L992.1269959097343 341.82849049881656 M380.4835832088033 333.5188907613149 L380.5064644587819 333.4969296271837" class="content-lines s_0_03 idy_2" stroke-width="2.5px" stroke="#2ebd40" stroke-linecap="round"></path><path d="M949.9032097842753 271.31557587573866 L949.8146766236765 271.2306028687227 M985.4986391134279 22.639462200540493 L986.030807264405 22.126429076315162 M986.1530934291161 22.639462200540493 L985.6207145852293 22.126429076315162 M71.22313681205026 464.08058336861063 L71.28904155416193 464.01793549242416 M729.2041146976803 342.1306886465668 L729.5154345408523 341.8331415677395 M991.6107561427202 56.24695380263097 L991.5429973030043 56.181919725866805 M647.0667480615515 183.18154064352757 L647.0097766988054 183.1267793624711 M647.0093131744044 3.1612708807211902 L647.0683493276642 3.1046896161731183 M759.2438248331175 476.285473551009 L759.389540049372 476.14751880235053" class="content-lines s_0_05 idy_2" stroke-width="2.5px" stroke="#2ebd40" stroke-linecap="round"></path><path d="M985.4533822764535 181.50428430180523 L984.2322904497835 180.33100161092807 M945.3472705850239 6.455885885255611 L946.3234529736166 5.523488120502634" class="content-lines s_1 idy_2" stroke-width="2.5px" stroke="#2ebd40" stroke-linecap="round"></path><path d="M795.8380649693498 333.2877124138122 L809.524929206129 318.0780699309647" class="content-lines s_2 idy_2" stroke-width="2.5px" stroke="#2ebd40" stroke-linecap="round"></path><path d="M636.078480749052 464.1228474296919 L636.0740983365332 464.1186816897001 M868.1797282996944 258.19228157943337 L868.1867654428738 258.185527418476 M650.5526622502904 111.04738472618897 L650.5551905652052 111.04495808153354 M915.364447535169 463.73571671900334 L915.3626355761468 463.733977623667" class="content-lines s_0 idy_3" stroke-width="2.5px" stroke="#094b09" stroke-linecap="round"></path><path d="" class="content-lines s_0_01 idy_3" stroke-width="2.5px" stroke="#094b09" stroke-linecap="round"></path><path d="" class="content-lines s_0_02 idy_3" stroke-width="2.5px" stroke="#094b09" stroke-linecap="round"></path><path d="M142.50467769863167 656.5682658214502 L142.53885208856298 656.5357083389904" class="content-lines s_0_03 idy_3" stroke-width="2.5px" stroke="#094b09" stroke-linecap="round"></path><path d="M675.4821422799948 472.7082353322778 L675.2405617898886 472.47636943545615 M543.3092549262425 71.27706502505771 L543.0676744361363 71.04519912823605 M0.3625182201960868 585.8307652355165 L0.022544141323364693 585.5046646379108 M729.4235302937004 256.8537848316024 L729.2041146976803 256.64432495376536 M621.4693293699469 463.991040180827 L621.2347017458562 463.76584755680756 M675.4826900815597 463.9826278126884 L675.256827282507 463.76584755680756 M153.81479949978132 999.9580190474619 L153.37655824788789 999.5311318085027 M944.0476745802501 463.9776531911449 L943.8269948267726 463.76584755680756 M639.5126487592021 463.97797674376557 L639.2915054813235 463.76584755680756 M867.3906833533765 183.11112750444397 L868.0212029545382 182.50317213011556 M868.0212029545382 3.7837456789042108 L867.3906833533765 3.1764778538948804 M811.3006911865175 840.4473050270897 L811.058773587756 840.2170568933715 M166.5687998101741 675.0417049217085 L166.32890486334438 674.8095154722661 M711.013478826058 296.33088497020833 L710.7656196872466 296.09295246174804 M359.2168729961261 390.095949125233 L358.96897171873286 389.85805706085046 M811.2957188338519 892.302476888333 L811.058773587756 892.0750598400462 M110.93934020504044 675.0417049217085 L110.70239495894458 674.8142878734217 M110.92539233442729 591.4807624307198 L110.70239495894458 591.2685523556066 M991.6103347569011 56.747651483191476 L991.5369714857908 56.67727878818539 M426.3641133340758 840.4425326259341 L426.1430121947792 840.2304438830537 M166.55485193956096 591.4807624307198 L166.33387721601008 591.2685523556066 M944.5930321073661 2.595903120094704 L944.2070005584626 2.2211078530710893 M811.2957188338519 824.3331711930263 L811.0727214583692 824.1210015619907 M183.33898622409694 675.0283179320263 L183.11792722338222 674.8142878734217 M426.3641133340758 926.2690310112649 L426.1430121947792 926.0550009526603 M75.83322408905973 591.4807624307198 L75.61022671357702 591.2685523556066 M285.00177045251905 591.4909543382724 L284.7648673450051 591.2636181781406 M426.3692542410692 726.0809579616573 L426.13239327213716 725.8535813574481 M759.2800218749807 256.8537848316024 L758.947759156598 256.53480239165253 M946.8313493014119 183.11112750444397 L946.3247592696557 182.62134972483273 M233.3522577704704 989.5835469286181 L233.16233918178924 989.4013059149989 M9.831605377574125 775.8314604692104 L9.641728927474908 775.6491790115135 M787.9482475849009 476.12503189521067 L787.4934037317338 475.6879931927764 M946.3247592696557 3.666012969040594 L946.8313493014119 3.1764778538948804 M548.1709516758535 475.6761430780426 L548.2755817747432 475.5756395452322 M773.0605601793519 257.1267823553328 L773.3445320828624 256.8541892723782 M773.3446584986083 257.5386648415064 L773.773587123899 257.1269845757208" class="content-lines s_0_05 idy_3" stroke-width="2.5px" stroke="#094b09" stroke-linecap="round"></path><path d="M8.296960362890726 16.554650727170383 L9.204288308637805 15.68595238462126 M464.87165578206026 862.0024210633727 L463.94228935797275 861.1147140043564 M462.587660365221 7.753089229867555 L463.90769358222235 6.483145193550968 M867.8984111268443 180.32974784452279 L867.1089447947073 179.57299870874192 M947.1130878600811 259.8726116710526 L946.3247592696557 259.1147301010993 M990.5591035539217 27.382743620260158 L991.5033448974244 26.476189621087087 M323.7148227644924 143.84328502328708 L322.43709668373157 142.6151601631983 M551.3258673036672 463.6511481527633 L552.1309249111118 462.87846405041216" class="content-lines s_1 idy_3" stroke-width="2.5px" stroke="#094b09" stroke-linecap="round"></path><path d="M689.6198472046592 409.92001819659936 L694.7600378421322 405.27639098406064 M335.2692219249907 318.6835582165602 L359.2316636383775 296.07879703459173 M730.2539553274567 371.39610407862745 L732.3646347568884 369.3703006762371 M761.6477045154988 99.70925157061538 L759.4174357905983 97.56765677408578 M985.2048067817497 6.457018319428016 L983.1195790557932 4.454389373496497 M636.2525973695159 422.56020798609563 L646.7349910061517 412.02873195804864 M502.45632114757177 518.2696616153228 L511.9423901534607 508.9098100709717 M855.9399029658019 270.7809051700028 L868.5818146483065 258.46046625793076 M233.91459714609712 2.2039595641729193 L235.56402765791105 0.6232027915797289 M991.5033448974244 22.30078349480425 L988.1237042122696 19.042163719324776 M786.548235339429 52.57742219884017 L761.0825839934658 27.38298628472569 M552.48952424319 462.8556131465739 L570.4615451518487 445.5259730046297 M985.6207145852293 26.65018004287799 L989.8001455550897 22.639866641316303 M989.0029257238808 22.639462200540493 L985.8251288460884 19.575863767198484 M542.7017851293872 473.05941125798927 L551.1145423153744 465.0833942724473 M710.4680791603602 390.38128209262834 L730.2254696460835 371.4221905086729 M788.4554275568038 341.33216077863585 L795.6266135653112 334.5891219424934 M608.2852626925517 137.22497572243128 L581.939083538938 111.51556536836722 M581.7280535207185 110.37524460072575 L570.5033887636881 99.50205656112348 M612.60299248825 445.50037190351543 L636.2340985320561 422.57492963033826 M0.02899134435602787 999.9713655930665 L9.204288308637805 991.162079276944 M900.4518562277095 225.5192908341304 L944.5933692160213 183.68903292912307 M511.9723085466188 508.6652042897092 L542.701363743568 478.57181770123225 M944.6090869070749 181.9695529703971 L984.3347293424135 143.8438512403734 M989.2951567894462 19.04175927854874 L986.7085642158909 16.559544460558755 M987.7086813190101 27.382743620260158 L991.5033448974244 23.740875765540636 M831.0579131179134 296.06310473248686 L855.7284094231813 272.3416016801117 M153.88609798037783 852.3927868958276 L198.60769068730178 809.4663327118292 M732.5757911908536 366.25566181697684 L757.4304330990808 342.4110469924186 M62.98647675987679 938.3849037788883 L76.23960857302707 925.6649582683852 M695.8151879332294 405.0735234908707 L710.4353796207957 390.97568870096416 M668.8439671941027 77.41603111832046 L689.6194258188401 57.47637287320276 M649.2412253039993 97.09385440512244 L668.6328950373013 78.48375476668843 M868.5959732118292 256.08583268632924 L900.4118245748923 225.55116076727109 M142.69413276291178 861.0861200415005 L151.4571037031765 852.6751270014813 M233.91459714609712 774.8902054514654 L251.29309612851358 758.2108656330859 M118.10496392073547 884.6866548578049 L142.66307662804203 861.1147140043564 M251.3365410064657 758.1705024436515 L283.2785974223577 727.512840084643 M432.40927215670865 584.90346342454 L463.91165460892216 554.6690483375078 M9.247606770844198 989.9618203863146 L62.94577088974899 938.4236492052192 M399.50717242909667 617.0453020988575 L432.3805336438441 585.4941491777374 M283.31049632886567 727.4768852996658 L310.89302147580185 701.0041334251737 M359.25711534185285 656.1333706551281 L399.46798354791775 617.536050536331 M198.63432227107066 808.9722274159159 L233.87111012956308 775.1511910841516 M809.5253084533662 676.5135053492752 L830.7186553949331 656.1723991900021 M76.26737789850763 925.35260865716 L118.06375238762472 885.2371796419559 M464.7805100293828 554.659058650343 L502.41043223186875 518.5423355864325 M612.3179249816096 141.9479542152011 L608.4964612650988 138.28056614752245" class="content-lines s_2 idy_3" stroke-width="2.5px" stroke="#094b09" stroke-linecap="round"></path></g></svg></g><svg width="100" height="5" x="0" y="0" viewBox="0 0 100 5" preserveAspectRatio="none"><polygon points="5,0 95,0 100,5 0,5" stroke="none" style="fill: rgb(244, 244, 244);"></polygon></svg><svg width="5" height="100" x="95" y="0" viewBox="0 0 5 100" preserveAspectRatio="none"><polygon points="0,0 5,5 5,95 0,100" stroke="none" style="fill: rgb(244, 244, 244);"></polygon></svg><svg width="100" height="5" x="0" y="95" viewBox="0 0 100 5" preserveAspectRatio="none"><polygon points="0,0 100,0 95,5 5,5" stroke="none" style="fill: rgb(244, 244, 244);"></polygon></svg><svg width="5" height="100" x="0" y="0" viewBox="0 0 5 100" preserveAspectRatio="none"><polygon points="5,0 5,100 0,95 0,5" stroke="#f4f4f4" stroke-width="0px" style="fill: rgb(244, 244, 244);"></polygon></svg><svg class="axis left-axis" width="5" height="90" x="0" y="5" viewBox="0 0 20 500" preserveAspectRatio="none"><g transform="translate(0,500)rotate(-90)"><line x1="50" y1="15" x2="50" y2="20" stroke-width="0.5" stroke="black"></line><text x="50" y="12" text-anchor="middle" font-family="sans-serif" font-size="6.5pt">2.5 M</text><line x1="100" y1="15" x2="100" y2="20" stroke-width="0.5" stroke="black"></line><text x="100" y="12" text-anchor="middle" font-family="sans-serif" font-size="6.5pt">4.9 M</text><line x1="150" y1="15" x2="150" y2="20" stroke-width="0.5" stroke="black"></line><text x="150" y="12" text-anchor="middle" font-family="sans-serif" font-size="6.5pt">7.4 M</text><line x1="200" y1="15" x2="200" y2="20" stroke-width="0.5" stroke="black"></line><text x="200" y="12" text-anchor="middle" font-family="sans-serif" font-size="6.5pt">9.9 M</text><line x1="250" y1="15" x2="250" y2="20" stroke-width="0.5" stroke="black"></line><text x="250" y="12" text-anchor="middle" font-family="sans-serif" font-size="6.5pt">12.4 M</text><line x1="300" y1="15" x2="300" y2="20" stroke-width="0.5" stroke="black"></line><text x="300" y="12" text-anchor="middle" font-family="sans-serif" font-size="6.5pt">14.8 M</text><line x1="350" y1="15" x2="350" y2="20" stroke-width="0.5" stroke="black"></line><text x="350" y="12" text-anchor="middle" font-family="sans-serif" font-size="6.5pt">17.3 M</text><line x1="400" y1="15" x2="400" y2="20" stroke-width="0.5" stroke="black"></line><text x="400" y="12" text-anchor="middle" font-family="sans-serif" font-size="6.5pt">19.8 M</text><line x1="450" y1="15" x2="450" y2="20" stroke-width="0.5" stroke="black"></line><text x="450" y="12" text-anchor="middle" font-family="sans-serif" font-size="6.5pt">22.3 M</text></g></svg><svg class="axis bottom-axis" width="90" height="5" x="5" y="95" viewBox="0 0 500 20" preserveAspectRatio="none"><line x1="50" y1="0" x2="50" y2="5" stroke-width="0.5" stroke="black"></line><text x="50" y="15" text-anchor="middle" font-family="sans-serif" font-size="6.5pt">2.4 M</text><line x1="100" y1="0" x2="100" y2="5" stroke-width="0.5" stroke="black"></line><text x="100" y="15" text-anchor="middle" font-family="sans-serif" font-size="6.5pt">4.7 M</text><line x1="150" y1="0" x2="150" y2="5" stroke-width="0.5" stroke="black"></line><text x="150" y="15" text-anchor="middle" font-family="sans-serif" font-size="6.5pt">7.1 M</text><line x1="200" y1="0" x2="200" y2="5" stroke-width="0.5" stroke="black"></line><text x="200" y="15" text-anchor="middle" font-family="sans-serif" font-size="6.5pt">9.5 M</text><line x1="250" y1="0" x2="250" y2="5" stroke-width="0.5" stroke="black"></line><text x="250" y="15" text-anchor="middle" font-family="sans-serif" font-size="6.5pt">11.9 M</text><line x1="300" y1="0" x2="300" y2="5" stroke-width="0.5" stroke="black"></line><text x="300" y="15" text-anchor="middle" font-family="sans-serif" font-size="6.5pt">14.2 M</text><line x1="350" y1="0" x2="350" y2="5" stroke-width="0.5" stroke="black"></line><text x="350" y="15" text-anchor="middle" font-family="sans-serif" font-size="6.5pt">16.6 M</text><line x1="400" y1="0" x2="400" y2="5" stroke-width="0.5" stroke="black"></line><text x="400" y="15" text-anchor="middle" font-family="sans-serif" font-size="6.5pt">19 M</text><line x1="450" y1="0" x2="450" y2="5" stroke-width="0.5" stroke="black"></line><text x="450" y="15" text-anchor="middle" font-family="sans-serif" font-size="6.5pt">21.4 M</text></svg><svg class="top-axis axis" width="90" height="5" x="5" y="0" viewBox="0 0 500 20" preserveAspectRatio="none"><text x="250" y="7.5" font-size="6pt" font-family="sans-serif" font-style="italic" text-anchor="middle">HB44A.assembly.final</text><svg x="251.220343866841" y="0" width="4.760269182946814" height="100%"><text x="2.380134591473407" y="17" text-anchor="middle" font-family="sans-serif" font-size="6pt">1</text></svg><svg x="255.98061304978782" y="0" width="15.370089891287108" height="100%"><text x="7.685044945643554" y="17" text-anchor="middle" font-family="sans-serif" font-size="6pt">2</text></svg><line x1="255.98061304978782" x2="255.98061304978782" y1="12" y2="20" stroke="black" stroke-width="0.5"></line><svg x="271.3507029410749" y="0" width="4.726115862306472" height="100%"><text x="2.363057931153236" y="17" text-anchor="middle" font-family="sans-serif" font-size="6pt">3</text></svg><line x1="271.3507029410749" x2="271.3507029410749" y1="12" y2="20" stroke="black" stroke-width="0.5"></line><svg x="276.0768188033814" y="0" width="30.216144377906232" height="100%"><text x="15.108072188953116" y="17" text-anchor="middle" font-family="sans-serif" font-size="6pt">4</text></svg><line x1="276.0768188033814" x2="276.0768188033814" y1="12" y2="20" stroke="black" stroke-width="0.5"></line><svg x="306.29296318128763" y="0" width="11.828215665767914" height="100%"><text x="5.914107832883957" y="17" text-anchor="middle" font-family="sans-serif" font-size="6pt">5</text></svg><line x1="306.29296318128763" x2="306.29296318128763" y1="12" y2="20" stroke="black" stroke-width="0.5"></line><svg x="318.12117884705555" y="0" width="5.253122036999287" height="100%"><text x="2.6265610184996433" y="17" text-anchor="middle" font-family="sans-serif" font-size="6pt">6</text></svg><line x1="318.12117884705555" x2="318.12117884705555" y1="12" y2="20" stroke="black" stroke-width="0.5"></line><svg x="323.37430088405483" y="0" width="21.435475233238094" height="100%"><text x="10.717737616619047" y="17" text-anchor="middle" font-family="sans-serif" font-size="6pt">7</text></svg><line x1="323.37430088405483" x2="323.37430088405483" y1="12" y2="20" stroke="black" stroke-width="0.5"></line><svg x="344.8097761172929" y="0" width="10.413855233154663" height="100%"><text x="5.206927616577332" y="17" text-anchor="middle" font-family="sans-serif" font-size="6pt">8</text></svg><line x1="344.8097761172929" x2="344.8097761172929" y1="12" y2="20" stroke="black" stroke-width="0.5"></line><svg x="355.2236313504476" y="0" width="9.897594396849627" height="100%"><text x="4.948797198424813" y="17" text-anchor="middle" font-family="sans-serif" font-size="6pt">9</text></svg><line x1="355.2236313504476" x2="355.2236313504476" y1="12" y2="20" stroke="black" stroke-width="0.5"></line><svg x="365.1212257472972" y="0" width="14.576346493086021" height="100%"><text x="7.2881732465430105" y="17" text-anchor="middle" font-family="sans-serif" font-size="6pt">10</text></svg><line x1="365.1212257472972" x2="365.1212257472972" y1="12" y2="20" stroke="black" stroke-width="0.5"></line><svg x="379.69757224038324" y="0" width="14.52519025464386" height="100%"><text x="7.26259512732193" y="17" text-anchor="middle" font-family="sans-serif" font-size="6pt">11</text></svg><line x1="379.69757224038324" x2="379.69757224038324" y1="12" y2="20" stroke="black" stroke-width="0.5"></line><svg x="394.2227624950271" y="0" width="10.53980745449212" height="100%"><text x="5.26990372724606" y="17" text-anchor="middle" font-family="sans-serif" font-size="6pt">12</text></svg><line x1="394.2227624950271" x2="394.2227624950271" y1="12" y2="20" stroke="black" stroke-width="0.5"></line><svg x="415.37064190671015" y="0" width="18.92732362991353" height="100%"><text x="9.463661814956765" y="17" text-anchor="middle" font-family="sans-serif" font-size="6pt">13</text></svg><line x1="415.37064190671015" x2="415.37064190671015" y1="12" y2="20" stroke="black" stroke-width="0.5"></line><svg x="434.2979655366237" y="0" width="15.917238308134245" height="100%"><text x="7.958619154067122" y="17" text-anchor="middle" font-family="sans-serif" font-size="6pt">14</text></svg><line x1="434.2979655366237" x2="434.2979655366237" y1="12" y2="20" stroke="black" stroke-width="0.5"></line><svg x="450.2152038447579" y="0" width="22.08158610970753" height="100%"><text x="11.040793054853765" y="17" text-anchor="middle" font-family="sans-serif" font-size="6pt">15</text></svg><line x1="450.2152038447579" x2="450.2152038447579" y1="12" y2="20" stroke="black" stroke-width="0.5"></line><svg x="472.29678995446545" y="0" width="20.433440824641934" height="100%"><text x="10.216720412320967" y="17" text-anchor="middle" font-family="sans-serif" font-size="6pt">16</text></svg><line x1="472.29678995446545" x2="472.29678995446545" y1="12" y2="20" stroke="black" stroke-width="0.5"></line><svg x="0" y="0" width="4.613058047034326" height="100%"></svg><line x1="0" x2="0" y1="12" y2="20" stroke="black" stroke-width="0.5"></line><svg x="4.613058047034326" y="0" width="26.869013608697166" height="100%"><text x="13.434506804348583" y="17" text-anchor="middle" font-family="sans-serif" font-size="6pt">2CB...</text></svg><line x1="4.613058047034326" x2="4.613058047034326" y1="12" y2="20" stroke="black" stroke-width="0.5"></line><svg x="31.48207165573149" y="0" width="6.646666010147559" height="100%"></svg><line x1="31.48207165573149" x2="31.48207165573149" y1="12" y2="20" stroke="black" stroke-width="0.5"></line><svg x="38.12873766587905" y="0" width="20.912703986027516" height="100%"><text x="10.456351993013758" y="17" text-anchor="middle" font-family="sans-serif" font-size="6pt">4C...</text></svg><line x1="38.12873766587905" x2="38.12873766587905" y1="12" y2="20" stroke="black" stroke-width="0.5"></line><svg x="59.04144165190657" y="0" width="12.301495148521852" height="100%"><text x="6.150747574260926" y="17" text-anchor="middle" font-family="sans-serif" font-size="6pt">5...</text></svg><line x1="59.04144165190657" x2="59.04144165190657" y1="12" y2="20" stroke="black" stroke-width="0.5"></line><svg x="71.34293680042842" y="0" width="5.590125345847142" height="100%"></svg><line x1="71.34293680042842" x2="71.34293680042842" y1="12" y2="20" stroke="black" stroke-width="0.5"></line><svg x="76.93306214627556" y="0" width="22.38003261610517" height="100%"><text x="11.190016308052584" y="17" text-anchor="middle" font-family="sans-serif" font-size="6pt">7CB...</text></svg><line x1="76.93306214627556" x2="76.93306214627556" y1="12" y2="20" stroke="black" stroke-width="0.5"></line><svg x="99.31309476238073" y="0" width="17.63373237306247" height="100%"><text x="8.816866186531236" y="17" text-anchor="middle" font-family="sans-serif" font-size="6pt">8C...</text></svg><line x1="99.31309476238073" x2="99.31309476238073" y1="12" y2="20" stroke="black" stroke-width="0.5"></line><svg x="116.9468271354432" y="0" width="8.710824445147608" height="100%"></svg><line x1="116.9468271354432" x2="116.9468271354432" y1="12" y2="20" stroke="black" stroke-width="0.5"></line><svg x="125.65765158059081" y="0" width="15.99308775557732" height="100%"><text x="7.99654387778866" y="17" text-anchor="middle" font-family="sans-serif" font-size="6pt">10...</text></svg><line x1="125.65765158059081" x2="125.65765158059081" y1="12" y2="20" stroke="black" stroke-width="0.5"></line><svg x="141.65073933616813" y="0" width="13.80457836535254" height="100%"><text x="6.90228918267627" y="17" text-anchor="middle" font-family="sans-serif" font-size="6pt">1...</text></svg><line x1="141.65073933616813" x2="141.65073933616813" y1="12" y2="20" stroke="black" stroke-width="0.5"></line><svg x="155.45531770152067" y="0" width="24.167003459282597" height="100%"><text x="12.083501729641299" y="17" text-anchor="middle" font-family="sans-serif" font-size="6pt">12C...</text></svg><line x1="155.45531770152067" x2="155.45531770152067" y1="12" y2="20" stroke="black" stroke-width="0.5"></line><svg x="179.62232116080327" y="0" width="20.119866567337596" height="100%"><text x="10.059933283668798" y="17" text-anchor="middle" font-family="sans-serif" font-size="6pt">13...</text></svg><line x1="179.62232116080327" x2="179.62232116080327" y1="12" y2="20" stroke="black" stroke-width="0.5"></line><svg x="199.74218772814086" y="0" width="16.45212439764478" height="100%"><text x="8.22606219882239" y="17" text-anchor="middle" font-family="sans-serif" font-size="6pt">14...</text></svg><line x1="199.74218772814086" x2="199.74218772814086" y1="12" y2="20" stroke="black" stroke-width="0.5"></line><svg x="216.19431212578564" y="0" width="15.766740362832564" height="100%"><text x="7.883370181416282" y="17" text-anchor="middle" font-family="sans-serif" font-size="6pt">15...</text></svg><line x1="216.19431212578564" x2="216.19431212578564" y1="12" y2="20" stroke="black" stroke-width="0.5"></line><svg x="231.9610524886182" y="0" width="19.259291378222798" height="100%"><text x="9.629645689111399" y="17" text-anchor="middle" font-family="sans-serif" font-size="6pt">16...</text></svg><line x1="231.9610524886182" x2="231.9610524886182" y1="12" y2="20" stroke="black" stroke-width="0.5"></line><svg x="404.7625699495192" y="0" width="10.60807195719093" height="100%"><text x="5.304035978595465" y="17" text-anchor="middle" font-family="sans-serif" font-size="6pt">t...</text></svg><line x1="404.7625699495192" x2="404.7625699495192" y1="12" y2="20" stroke="black" stroke-width="0.5"></line><svg x="492.7302307791074" y="0" width="3.0217366396781813" height="100%"></svg><line x1="492.7302307791074" x2="492.7302307791074" y1="12" y2="20" stroke="black" stroke-width="0.5"></line><svg x="495.75196741878557" y="0" width="0.9250682887324047" height="100%"></svg><line x1="495.75196741878557" x2="495.75196741878557" y1="12" y2="20" stroke="black" stroke-width="0.5"></line><svg x="496.677035707518" y="0" width="3.322964292482027" height="100%"></svg><line x1="496.677035707518" x2="496.677035707518" y1="12" y2="20" stroke="black" stroke-width="0.5"></line></svg><svg class="right-axis" width="5" height="90" x="95" y="5" viewBox="0 0 20 500" preserveAspectRatio="none"><g transform="translate(20)rotate(90)"><text x="250" y="7.5" font-size="6pt" font-family="sans-serif" font-style="italic" text-anchor="middle">HB44I.assembly.final</text><svg x="254.33790031901881" y="0" width="4.799559353685851" height="100%"><text x="2.3997796768429254" y="17" text-anchor="middle" font-family="sans-serif" font-size="6pt">1</text></svg><line x1="254.33790031901881" x2="254.33790031901881" y1="12" y2="20" stroke="black" stroke-width="0.5" class="whereis"></line><svg x="238.0707867614724" y="0" width="16.267113557546423" height="100%"><text x="8.133556778773212" y="17" text-anchor="middle" font-family="sans-serif" font-size="6pt">2</text></svg><line x1="238.0707867614724" x2="238.0707867614724" y1="12" y2="20" stroke="black" stroke-width="0.5" class="whereis"></line><svg x="231.4364413838523" y="0" width="6.634345377620093" height="100%"><text x="3.3171726888100466" y="17" text-anchor="middle" font-family="sans-serif" font-size="6pt">3</text></svg><line x1="231.4364413838523" x2="231.4364413838523" y1="12" y2="20" stroke="black" stroke-width="0.5" class="whereis"></line><svg x="222.75807254688766" y="0" width="8.678368836964637" height="100%"><text x="4.3391844184823185" y="17" text-anchor="middle" font-family="sans-serif" font-size="6pt">4</text></svg><line x1="222.75807254688766" x2="222.75807254688766" y1="12" y2="20" stroke="black" stroke-width="0.5" class="whereis"></line><svg x="211.28232841731517" y="0" width="11.47574412957249" height="100%"><text x="5.737872064786245" y="17" text-anchor="middle" font-family="sans-serif" font-size="6pt">5</text></svg><line x1="211.28232841731517" x2="211.28232841731517" y1="12" y2="20" stroke="black" stroke-width="0.5" class="whereis"></line><svg x="206.00736915360125" y="0" width="5.274959263713924" height="100%"><text x="2.637479631856962" y="17" text-anchor="middle" font-family="sans-serif" font-size="6pt">6</text></svg><line x1="206.00736915360125" x2="206.00736915360125" y1="12" y2="20" stroke="black" stroke-width="0.5" class="whereis"></line><svg x="195.34026391135717" y="0" width="10.667105242244077" height="100%"><text x="5.333552621122038" y="17" text-anchor="middle" font-family="sans-serif" font-size="6pt">8</text></svg><line x1="195.34026391135717" x2="195.34026391135717" y1="12" y2="20" stroke="black" stroke-width="0.5" class="whereis"></line><svg x="185.70288510658565" y="0" width="9.637378804771515" height="100%"><text x="4.818689402385758" y="17" text-anchor="middle" font-family="sans-serif" font-size="6pt">9</text></svg><line x1="185.70288510658565" x2="185.70288510658565" y1="12" y2="20" stroke="black" stroke-width="0.5" class="whereis"></line><svg x="170.9039117875841" y="0" width="14.798973319001561" height="100%"><text x="7.399486659500781" y="17" text-anchor="middle" font-family="sans-serif" font-size="6pt">10</text></svg><line x1="170.9039117875841" x2="170.9039117875841" y1="12" y2="20" stroke="black" stroke-width="0.5" class="whereis"></line><svg x="148.0367089861361" y="0" width="22.867202801448002" height="100%"><text x="11.433601400724001" y="17" text-anchor="middle" font-family="sans-serif" font-size="6pt">12</text></svg><line x1="148.0367089861361" x2="148.0367089861361" y1="12" y2="20" stroke="black" stroke-width="0.5" class="whereis"></line><svg x="129.06348219706297" y="0" width="18.973226789073124" height="100%"><text x="9.486613394536562" y="17" text-anchor="middle" font-family="sans-serif" font-size="6pt">13</text></svg><line x1="129.06348219706297" x2="129.06348219706297" y1="12" y2="20" stroke="black" stroke-width="0.5" class="whereis"></line><svg x="112.7687453345228" y="0" width="16.294736862540162" height="100%"><text x="8.147368431270081" y="17" text-anchor="middle" font-family="sans-serif" font-size="6pt">14</text></svg><line x1="112.7687453345228" x2="112.7687453345228" y1="12" y2="20" stroke="black" stroke-width="0.5" class="whereis"></line><svg x="90.98865911664706" y="0" width="21.78008621787575" height="100%"><text x="10.890043108937874" y="17" text-anchor="middle" font-family="sans-serif" font-size="6pt">15</text></svg><line x1="90.98865911664706" x2="90.98865911664706" y1="12" y2="20" stroke="black" stroke-width="0.5" class="whereis"></line><svg x="71.92176384387619" y="0" width="19.066895272770864" height="100%"><text x="9.533447636385432" y="17" text-anchor="middle" font-family="sans-serif" font-size="6pt">16</text></svg><line x1="71.92176384387619" x2="71.92176384387619" y1="12" y2="20" stroke="black" stroke-width="0.5" class="whereis"></line><svg x="495.5692906339322" y="0" width="4.430709366067788" height="100%"></svg><line x1="495.5692906339322" x2="495.5692906339322" y1="12" y2="20" stroke="black" stroke-width="0.5" class="whereis"></line><svg x="469.2022191341821" y="0" width="26.367071499750125" height="100%"><text x="13.183535749875062" y="17" text-anchor="middle" font-family="sans-serif" font-size="6pt">2CB...</text></svg><line x1="469.2022191341821" x2="469.2022191341821" y1="12" y2="20" stroke="black" stroke-width="0.5" class="whereis"></line><svg x="462.68342248623577" y="0" width="6.518796647946317" height="100%"></svg><line x1="462.68342248623577" x2="462.68342248623577" y1="12" y2="20" stroke="black" stroke-width="0.5" class="whereis"></line><svg x="442.4886429996822" y="0" width="20.194779486553557" height="100%"><text x="10.097389743276779" y="17" text-anchor="middle" font-family="sans-serif" font-size="6pt">4C...</text></svg><line x1="442.4886429996822" x2="442.4886429996822" y1="12" y2="20" stroke="black" stroke-width="0.5" class="whereis"></line><svg x="430.5498141817077" y="0" width="11.938828817974525" height="100%"><text x="5.969414408987262" y="17" text-anchor="middle" font-family="sans-serif" font-size="6pt">5...</text></svg><line x1="430.5498141817077" x2="430.5498141817077" y1="12" y2="20" stroke="black" stroke-width="0.5" class="whereis"></line><svg x="426.3374623905467" y="0" width="4.212351791160984" height="100%"></svg><line x1="426.3374623905467" x2="426.3374623905467" y1="12" y2="20" stroke="black" stroke-width="0.5" class="whereis"></line><svg x="404.4920387653248" y="0" width="21.845423625221883" height="100%"><text x="10.922711812610942" y="17" text-anchor="middle" font-family="sans-serif" font-size="6pt">7C...</text></svg><line x1="404.4920387653248" x2="404.4920387653248" y1="12" y2="20" stroke="black" stroke-width="0.5" class="whereis"></line><svg x="387.4531106530954" y="0" width="17.038928112229428" height="100%"><text x="8.519464056114714" y="17" text-anchor="middle" font-family="sans-serif" font-size="6pt">8C...</text></svg><line x1="387.4531106530954" x2="387.4531106530954" y1="12" y2="20" stroke="black" stroke-width="0.5" class="whereis"></line><svg x="379.09780910791727" y="0" width="8.355301545178122" height="100%"></svg><line x1="379.09780910791727" x2="379.09780910791727" y1="12" y2="20" stroke="black" stroke-width="0.5" class="whereis"></line><svg x="363.74507547855757" y="0" width="15.352733629359705" height="100%"><text x="7.676366814679852" y="17" text-anchor="middle" font-family="sans-serif" font-size="6pt">1...</text></svg><line x1="363.74507547855757" x2="363.74507547855757" y1="12" y2="20" stroke="black" stroke-width="0.5" class="whereis"></line><svg x="350.49381612075854" y="0" width="13.251259357799029" height="100%"><text x="6.625629678899514" y="17" text-anchor="middle" font-family="sans-serif" font-size="6pt">1...</text></svg><line x1="350.49381612075854" x2="350.49381612075854" y1="12" y2="20" stroke="black" stroke-width="0.5" class="whereis"></line><svg x="328.0758459111381" y="0" width="22.41797020962042" height="100%"><text x="11.20898510481021" y="17" text-anchor="middle" font-family="sans-serif" font-size="6pt">12C...</text></svg><line x1="328.0758459111381" x2="328.0758459111381" y1="12" y2="20" stroke="black" stroke-width="0.5" class="whereis"></line><svg x="308.76060377992775" y="0" width="19.31524213121037" height="100%"><text x="9.657621065605184" y="17" text-anchor="middle" font-family="sans-serif" font-size="6pt">13...</text></svg><line x1="308.76060377992775" x2="308.76060377992775" y1="12" y2="20" stroke="black" stroke-width="0.5" class="whereis"></line><svg x="292.6005456957613" y="0" width="16.16005808416645" height="100%"><text x="8.080029042083225" y="17" text-anchor="middle" font-family="sans-serif" font-size="6pt">14...</text></svg><line x1="292.6005456957613" x2="292.6005456957613" y1="12" y2="20" stroke="black" stroke-width="0.5" class="whereis"></line><svg x="277.3295495472103" y="0" width="15.270996148550978" height="100%"><text x="7.635498074275489" y="17" text-anchor="middle" font-family="sans-serif" font-size="6pt">1...</text></svg><line x1="277.3295495472103" x2="277.3295495472103" y1="12" y2="20" stroke="black" stroke-width="0.5" class="whereis"></line><svg x="259.13745967270467" y="0" width="18.192089874505655" height="100%"><text x="9.096044937252827" y="17" text-anchor="middle" font-family="sans-serif" font-size="6pt">16...</text></svg><line x1="259.13745967270467" x2="259.13745967270467" y1="12" y2="20" stroke="black" stroke-width="0.5" class="whereis"></line><svg x="71.30713519674555" y="0" width="0.6146286471306439" height="100%"></svg><line x1="71.30713519674555" x2="71.30713519674555" y1="12" y2="20" stroke="black" stroke-width="0.5" class="whereis"></line><svg x="48.547109200910256" y="0" width="22.760025995835292" height="100%"><text x="11.380012997917646" y="17" text-anchor="middle" font-family="sans-serif" font-size="6pt">tig0...</text></svg><line x1="48.547109200910256" x2="48.547109200910256" y1="12" y2="20" stroke="black" stroke-width="0.5" class="whereis"></line><svg x="27.53295292442823" y="0" width="21.014156276482026" height="100%"><text x="10.507078138241013" y="17" text-anchor="middle" font-family="sans-serif" font-size="6pt">tig0...</text></svg><line x1="27.53295292442823" x2="27.53295292442823" y1="12" y2="20" stroke="black" stroke-width="0.5" class="whereis"></line><svg x="26.294717044942047" y="0" width="1.238235879486183" height="100%"></svg><line x1="26.294717044942047" x2="26.294717044942047" y1="12" y2="20" stroke="black" stroke-width="0.5" class="whereis"></line><svg x="13.691371810130022" y="0" width="12.603345234812025" height="100%"><text x="6.3016726174060125" y="17" text-anchor="middle" font-family="sans-serif" font-size="6pt">ti...</text></svg><line x1="13.691371810130022" x2="13.691371810130022" y1="12" y2="20" stroke="black" stroke-width="0.5" class="whereis"></line><svg x="11.319791766386516" y="0" width="2.3715800437435064" height="100%"></svg><line x1="11.319791766386516" x2="11.319791766386516" y1="12" y2="20" stroke="black" stroke-width="0.5" class="whereis"></line><svg x="9.521061637623518" y="0" width="1.7987301287629975" height="100%"></svg><line x1="9.521061637623518" x2="9.521061637623518" y1="12" y2="20" stroke="black" stroke-width="0.5" class="whereis"></line><svg x="8.279671120085311" y="0" width="1.241390517538207" height="100%"></svg><line x1="8.279671120085311" x2="8.279671120085311" y1="12" y2="20" stroke="black" stroke-width="0.5" class="whereis"></line><svg x="7.83181362689578" y="0" width="0.44785749318953094" height="100%"></svg><line x1="7.83181362689578" x2="7.83181362689578" y1="12" y2="20" stroke="black" stroke-width="0.5" class="whereis"></line><svg x="5.541829509689478" y="0" width="2.289984117206302" height="100%"></svg><line x1="5.541829509689478" x2="5.541829509689478" y1="12" y2="20" stroke="black" stroke-width="0.5" class="whereis"></line><svg x="3.8765850590112336" y="0" width="1.6652444506782444" height="100%"></svg><line x1="3.8765850590112336" x2="3.8765850590112336" y1="12" y2="20" stroke="black" stroke-width="0.5" class="whereis"></line><svg x="3.2364766429990937" y="0" width="0.64010841601214" height="100%"></svg><line x1="3.2364766429990937" x2="3.2364766429990937" y1="12" y2="20" stroke="black" stroke-width="0.5" class="whereis"></line><svg x="2.227154242670565" y="0" width="1.0093224003285286" height="100%"></svg><line x1="2.227154242670565" x2="2.227154242670565" y1="12" y2="20" stroke="black" stroke-width="0.5" class="whereis"></line><svg x="1.1103719281862254" y="0" width="1.1167823144843396" height="100%"></svg><line x1="1.1103719281862254" x2="1.1103719281862254" y1="12" y2="20" stroke="black" stroke-width="0.5" class="whereis"></line><svg x="0.31154072967331103" y="0" width="0.7988311985129144" height="100%"></svg><line x1="0.31154072967331103" x2="0.31154072967331103" y1="12" y2="20" stroke="black" stroke-width="0.5" class="whereis"></line><svg x="0" y="0" width="0.31154072967331103" height="100%"></svg></g></svg></svg>