<?xml version="1.0" standalone="no"?> <!DOCTYPE svg PUBLIC "-//W3C//DTD SVG 1.1//EN" "http://www.w3.org/Graphics/SVG/1.1/DTD/svg11.dtd">  <svg id="svg" width="744.0945" height="1052.362"> 	<path d="M70.86614,528.232571284572 A7.23993016826923,7.23993016826923 0 1,1 85.3460003365385,528.232571284572 L85.3460003365385,520.992641116303 L70.86614,520.992641116303 Z" style="fill:white; stroke:white; stroke-width:0.75"/> <path d="M108.513776875,172.829213506942 A7.23993016826923,7.23993016826923 0 1,1 122.993637211538,172.829213506942 L122.993637211538,165.589283338672 L108.513776875,165.589283338672 Z" style="fill:white; stroke:white; stroke-width:0.75"/> <path d="M146.16141375,481.692699790127 A7.23993016826923,7.23993016826923 0 1,1 160.641274086538,481.692699790127 L160.641274086538,474.452769621858 L146.16141375,474.452769621858 Z" style="fill:white; stroke:white; stroke-width:0.75"/> <path d="M183.809050625,170.058482392464 A7.23993016826923,7.23993016826923 0 1,1 198.288910961538,170.058482392464 L198.288910961538,162.818552224195 L183.809050625,162.818552224195 Z" style="fill:white; stroke:white; stroke-width:0.75"/> <path d="M221.4566875,332.873642992151 A7.23993016826923,7.23993016826923 0 1,1 235.936547836538,332.873642992151 L235.936547836538,325.633712823882 L221.4566875,325.633712823882 Z" style="fill:white; stroke:white; stroke-width:0.75"/> <path d="M259.104324375,502.296140349408 A7.23993016826923,7.23993016826923 0 1,1 273.584184711539,502.296140349408 L273.584184711539,495.056210181139 L259.104324375,495.056210181139 Z" style="fill:white; stroke:white; stroke-width:0.75"/> <path d="M296.75196125,219.461337187995 A7.23993016826923,7.23993016826923 0 1,1 311.231821586539,219.461337187995 L311.231821586539,212.221407019726 L296.75196125,212.221407019726 Z" style="fill:white; stroke:white; stroke-width:0.75"/> <path d="M334.399598125,235.870468772773 A7.23993016826923,7.23993016826923 0 1,1 348.879458461538,235.870468772773 L348.879458461538,228.630538604504 L334.399598125,228.630538604504 Z" style="fill:white; stroke:white; stroke-width:0.75"/> <path d="M372.047235,438.768300020874 A7.23993016826923,7.23993016826923 0 1,1 386.527095336538,438.768300020874 L386.527095336538,431.528369852605 L372.047235,431.528369852605 Z" style="fill:white; stroke:white; stroke-width:0.75"/> <path d="M409.694871875,272.962631038612 A7.23993016826923,7.23993016826923 0 1,1 424.174732211538,272.962631038612 L424.174732211538,265.722700870343 L409.694871875,265.722700870343 Z" style="fill:white; stroke:white; stroke-width:0.75"/> <path d="M447.34250875,314.80804199782 A7.23993016826923,7.23993016826923 0 1,1 461.822369086538,314.80804199782 L461.822369086538,307.568111829551 L447.34250875,307.568111829551 Z" style="fill:white; stroke:white; stroke-width:0.75"/> <path d="M484.990145625,132.119770649507 A7.23993016826923,7.23993016826923 0 1,1 499.470005961538,132.119770649507 L499.470005961538,124.879840481238 L484.990145625,124.879840481238 Z" style="fill:white; stroke:white; stroke-width:0.75"/> <path d="M522.6377825,191.536057641525 A7.23993016826923,7.23993016826923 0 1,1 537.117642836538,191.536057641525 L537.117642836538,184.296127473256 L522.6377825,184.296127473256 Z" style="fill:white; stroke:white; stroke-width:0.75"/> <path d="M560.285419375,265.707267891773 A7.23993016826923,7.23993016826923 0 1,1 574.765279711538,265.707267891773 L574.765279711538,258.467337723504 L560.285419375,258.467337723504 Z" style="fill:white; stroke:white; stroke-width:0.75"/> <path d="M597.93305625,95.8226051682692 A7.23993016826923,7.23993016826923 0 1,1 612.412916586538,95.8226051682692 L612.412916586538,88.582675 L597.93305625,88.582675 Z" style="fill:white; stroke:white; stroke-width:0.75"/> <path d="M635.580693125,199.960400702012 A7.23993016826923,7.23993016826923 0 1,1 650.060553461538,199.960400702012 L650.060553461538,192.720470533743 L635.580693125,192.720470533743 Z" style="fill:white; stroke:white; stroke-width:0.75"/><path d="M70.86614,612.838794831731 A7.23993016826923,7.23993016826923 0 0,0 85.3460003365385,612.838794831731 L85.3460003365385,620.078725 L70.86614,620.078725 Z" style="fill:white; stroke:white; stroke-width:0.75"/> <path d="M108.513776875,612.838794831731 A7.23993016826923,7.23993016826923 0 0,0 122.993637211538,612.838794831731 L122.993637211538,620.078725 L108.513776875,620.078725 Z" style="fill:white; stroke:white; stroke-width:0.75"/> <path d="M146.16141375,612.838794831731 A7.23993016826923,7.23993016826923 0 0,0 160.641274086538,612.838794831731 L160.641274086538,620.078725 L146.16141375,620.078725 Z" style="fill:white; stroke:white; stroke-width:0.75"/> <path d="M183.809050625,612.838794831731 A7.23993016826923,7.23993016826923 0 0,0 198.288910961538,612.838794831731 L198.288910961538,620.078725 L183.809050625,620.078725 Z" style="fill:white; stroke:white; stroke-width:0.75"/> <path d="M221.4566875,612.838794831731 A7.23993016826923,7.23993016826923 0 0,0 235.936547836538,612.838794831731 L235.936547836538,620.078725 L221.4566875,620.078725 Z" style="fill:white; stroke:white; stroke-width:0.75"/> <path d="M259.104324375,612.838794831731 A7.23993016826923,7.23993016826923 0 0,0 273.584184711539,612.838794831731 L273.584184711539,620.078725 L259.104324375,620.078725 Z" style="fill:white; stroke:white; stroke-width:0.75"/> <path d="M296.75196125,612.838794831731 A7.23993016826923,7.23993016826923 0 0,0 311.231821586539,612.838794831731 L311.231821586539,620.078725 L296.75196125,620.078725 Z" style="fill:white; stroke:white; stroke-width:0.75"/> <path d="M334.399598125,612.838794831731 A7.23993016826923,7.23993016826923 0 0,0 348.879458461538,612.838794831731 L348.879458461538,620.078725 L334.399598125,620.078725 Z" style="fill:white; stroke:white; stroke-width:0.75"/> <path d="M372.047235,612.838794831731 A7.23993016826923,7.23993016826923 0 0,0 386.527095336538,612.838794831731 L386.527095336538,620.078725 L372.047235,620.078725 Z" style="fill:white; stroke:white; stroke-width:0.75"/> <path d="M409.694871875,612.838794831731 A7.23993016826923,7.23993016826923 0 0,0 424.174732211538,612.838794831731 L424.174732211538,620.078725 L409.694871875,620.078725 Z" style="fill:white; stroke:white; stroke-width:0.75"/> <path d="M447.34250875,612.838794831731 A7.23993016826923,7.23993016826923 0 0,0 461.822369086538,612.838794831731 L461.822369086538,620.078725 L447.34250875,620.078725 Z" style="fill:white; stroke:white; stroke-width:0.75"/> <path d="M484.990145625,612.838794831731 A7.23993016826923,7.23993016826923 0 0,0 499.470005961538,612.838794831731 L499.470005961538,620.078725 L484.990145625,620.078725 Z" style="fill:white; stroke:white; stroke-width:0.75"/> <path d="M522.6377825,612.838794831731 A7.23993016826923,7.23993016826923 0 0,0 537.117642836538,612.838794831731 L537.117642836538,620.078725 L522.6377825,620.078725 Z" style="fill:white; stroke:white; stroke-width:0.75"/> <path d="M560.285419375,612.838794831731 A7.23993016826923,7.23993016826923 0 0,0 574.765279711538,612.838794831731 L574.765279711538,620.078725 L560.285419375,620.078725 Z" style="fill:white; stroke:white; stroke-width:0.75"/> <path d="M597.93305625,612.838794831731 A7.23993016826923,7.23993016826923 0 0,0 612.412916586538,612.838794831731 L612.412916586538,620.078725 L597.93305625,620.078725 Z" style="fill:white; stroke:white; stroke-width:0.75"/> <path d="M635.580693125,612.838794831731 A7.23993016826923,7.23993016826923 0 0,0 650.060553461538,612.838794831731 L650.060553461538,620.078725 L635.580693125,620.078725 Z" style="fill:white; stroke:white; stroke-width:0.75"/><path d="M70.86614, L85.3460003365385, L85.3460003365385, L70.86614, Z" style="fill:white; stroke:white; stroke-width:0.75"/> <path d="M108.513776875, L122.993637211538, L122.993637211538, L108.513776875, Z" style="fill:white; stroke:white; stroke-width:0.75"/> <path d="M146.16141375, L160.641274086538, L160.641274086538, L146.16141375, Z" style="fill:white; stroke:white; stroke-width:0.75"/> <path d="M183.809050625, L198.288910961538, L198.288910961538, L183.809050625, Z" style="fill:white; stroke:white; stroke-width:0.75"/> <path d="M221.4566875, L235.936547836538, L235.936547836538, L221.4566875, Z" style="fill:white; stroke:white; stroke-width:0.75"/> <path d="M259.104324375, L273.584184711539, L273.584184711539, L259.104324375, Z" style="fill:white; stroke:white; stroke-width:0.75"/> <path d="M296.75196125, L311.231821586539, L311.231821586539, L296.75196125, Z" style="fill:white; stroke:white; stroke-width:0.75"/> <path d="M334.399598125, L348.879458461538, L348.879458461538, L334.399598125, Z" style="fill:white; stroke:white; stroke-width:0.75"/> <path d="M372.047235, L386.527095336538, L386.527095336538, L372.047235, Z" style="fill:white; stroke:white; stroke-width:0.75"/> <path d="M409.694871875, L424.174732211538, L424.174732211538, L409.694871875, Z" style="fill:white; stroke:white; stroke-width:0.75"/> <path d="M447.34250875, L461.822369086538, L461.822369086538, L447.34250875, Z" style="fill:white; stroke:white; stroke-width:0.75"/> <path d="M484.990145625, L499.470005961538, L499.470005961538, L484.990145625, Z" style="fill:white; stroke:white; stroke-width:0.75"/> <path d="M522.6377825, L537.117642836538, L537.117642836538, L522.6377825, Z" style="fill:white; stroke:white; stroke-width:0.75"/> <path d="M560.285419375, L574.765279711538, L574.765279711538, L560.285419375, Z" style="fill:white; stroke:white; stroke-width:0.75"/> <path d="M597.93305625, L612.412916586538, L612.412916586538, L597.93305625, Z" style="fill:white; stroke:white; stroke-width:0.75"/> <path d="M635.580693125, L650.060553461538, L650.060553461538, L635.580693125, Z" style="fill:white; stroke:white; stroke-width:0.75"/><path d="M70.86614,528.232571284572 A7.23993016826923,7.23993016826923 0 1,1 85.3460003365385,528.232571284572 L85.3460003365385,612.838794831731 A7.23993016826923,7.23993016826923 0 1,1 70.86614,612.838794831731 Z" style="fill:none; stroke:grey; stroke-width:1"/> <path d="M108.513776875,172.829213506942 A7.23993016826923,7.23993016826923 0 1,1 122.993637211538,172.829213506942 L122.993637211538,612.838794831731 A7.23993016826923,7.23993016826923 0 1,1 108.513776875,612.838794831731 Z" style="fill:none; stroke:grey; stroke-width:1"/> <path d="M146.16141375,481.692699790127 A7.23993016826923,7.23993016826923 0 1,1 160.641274086538,481.692699790127 L160.641274086538,612.838794831731 A7.23993016826923,7.23993016826923 0 1,1 146.16141375,612.838794831731 Z" style="fill:none; stroke:grey; stroke-width:1"/> <path d="M183.809050625,170.058482392464 A7.23993016826923,7.23993016826923 0 1,1 198.288910961538,170.058482392464 L198.288910961538,612.838794831731 A7.23993016826923,7.23993016826923 0 1,1 183.809050625,612.838794831731 Z" style="fill:none; stroke:grey; stroke-width:1"/> <path d="M221.4566875,332.873642992151 A7.23993016826923,7.23993016826923 0 1,1 235.936547836538,332.873642992151 L235.936547836538,612.838794831731 A7.23993016826923,7.23993016826923 0 1,1 221.4566875,612.838794831731 Z" style="fill:none; stroke:grey; stroke-width:1"/> <path d="M259.104324375,502.296140349408 A7.23993016826923,7.23993016826923 0 1,1 273.584184711539,502.296140349408 L273.584184711539,612.838794831731 A7.23993016826923,7.23993016826923 0 1,1 259.104324375,612.838794831731 Z" style="fill:none; stroke:grey; stroke-width:1"/> <path d="M296.75196125,219.461337187995 A7.23993016826923,7.23993016826923 0 1,1 311.231821586539,219.461337187995 L311.231821586539,612.838794831731 A7.23993016826923,7.23993016826923 0 1,1 296.75196125,612.838794831731 Z" style="fill:none; stroke:grey; stroke-width:1"/> <path d="M334.399598125,235.870468772773 A7.23993016826923,7.23993016826923 0 1,1 348.879458461538,235.870468772773 L348.879458461538,612.838794831731 A7.23993016826923,7.23993016826923 0 1,1 334.399598125,612.838794831731 Z" style="fill:none; stroke:grey; stroke-width:1"/> <path d="M372.047235,438.768300020874 A7.23993016826923,7.23993016826923 0 1,1 386.527095336538,438.768300020874 L386.527095336538,612.838794831731 A7.23993016826923,7.23993016826923 0 1,1 372.047235,612.838794831731 Z" style="fill:none; stroke:grey; stroke-width:1"/> <path d="M409.694871875,272.962631038612 A7.23993016826923,7.23993016826923 0 1,1 424.174732211538,272.962631038612 L424.174732211538,612.838794831731 A7.23993016826923,7.23993016826923 0 1,1 409.694871875,612.838794831731 Z" style="fill:none; stroke:grey; stroke-width:1"/> <path d="M447.34250875,314.80804199782 A7.23993016826923,7.23993016826923 0 1,1 461.822369086538,314.80804199782 L461.822369086538,612.838794831731 A7.23993016826923,7.23993016826923 0 1,1 447.34250875,612.838794831731 Z" style="fill:none; stroke:grey; stroke-width:1"/> <path d="M484.990145625,132.119770649507 A7.23993016826923,7.23993016826923 0 1,1 499.470005961538,132.119770649507 L499.470005961538,612.838794831731 A7.23993016826923,7.23993016826923 0 1,1 484.990145625,612.838794831731 Z" style="fill:none; stroke:grey; stroke-width:1"/> <path d="M522.6377825,191.536057641525 A7.23993016826923,7.23993016826923 0 1,1 537.117642836538,191.536057641525 L537.117642836538,612.838794831731 A7.23993016826923,7.23993016826923 0 1,1 522.6377825,612.838794831731 Z" style="fill:none; stroke:grey; stroke-width:1"/> <path d="M560.285419375,265.707267891773 A7.23993016826923,7.23993016826923 0 1,1 574.765279711538,265.707267891773 L574.765279711538,612.838794831731 A7.23993016826923,7.23993016826923 0 1,1 560.285419375,612.838794831731 Z" style="fill:none; stroke:grey; stroke-width:1"/> <path d="M597.93305625,95.8226051682692 A7.23993016826923,7.23993016826923 0 1,1 612.412916586538,95.8226051682692 L612.412916586538,612.838794831731 A7.23993016826923,7.23993016826923 0 1,1 597.93305625,612.838794831731 Z" style="fill:none; stroke:grey; stroke-width:1"/> <path d="M635.580693125,199.960400702012 A7.23993016826923,7.23993016826923 0 1,1 650.060553461538,199.960400702012 L650.060553461538,612.838794831731 A7.23993016826923,7.23993016826923 0 1,1 635.580693125,612.838794831731 Z" style="fill:none; stroke:grey; stroke-width:1"/><text x="51.7060701682692" y="635.078725" font-size="9" font-family="Arial" fill="black" >SU1206_chr01</text> <text x="89.3537070432692" y="635.078725" font-size="9" font-family="Arial" fill="black" >SU1206_chr02</text> <text x="127.001343918269" y="635.078725" font-size="9" font-family="Arial" fill="black" >SU1206_chr03</text> <text x="164.648980793269" y="635.078725" font-size="9" font-family="Arial" fill="black" >SU1206_chr04</text> <text x="202.296617668269" y="635.078725" font-size="9" font-family="Arial" fill="black" >SU1206_chr05</text> <text x="239.944254543269" y="635.078725" font-size="9" font-family="Arial" fill="black" >SU1206_chr06</text> <text x="277.591891418269" y="635.078725" font-size="9" font-family="Arial" fill="black" >SU1206_chr07</text> <text x="315.239528293269" y="635.078725" font-size="9" font-family="Arial" fill="black" >SU1206_chr08</text> <text x="352.887165168269" y="635.078725" font-size="9" font-family="Arial" fill="black" >SU1206_chr09</text> <text x="390.534802043269" y="635.078725" font-size="9" font-family="Arial" fill="black" >SU1206_chr10</text> <text x="428.182438918269" y="635.078725" font-size="9" font-family="Arial" fill="black" >SU1206_chr11</text> <text x="465.830075793269" y="635.078725" font-size="9" font-family="Arial" fill="black" >SU1206_chr12</text> <text x="503.477712668269" y="635.078725" font-size="9" font-family="Arial" fill="black" >SU1206_chr13</text> <text x="541.125349543269" y="635.078725" font-size="9" font-family="Arial" fill="black" >SU1206_chr14</text> <text x="580.972986418269" y="635.078725" font-size="9" font-family="Arial" fill="black" >SU1206chr15</text> <text x="616.420623293269" y="635.078725" font-size="9" font-family="Arial" fill="black" >SU1206_chr16</text><rect x="126.613602295673" y="419.615882847182" width="7.23993016826923" height="7.23993016826923" style="fill:#52BE80; stroke:none"/> <rect x="239.556512920673" y="542.577760394031" width="7.23993016826923" height="7.23993016826923" style="fill:#A569BD; stroke:none"/> <rect x="239.556512920673" y="565.089215122478" width="7.23993016826923" height="7.23993016826923" style="fill:#A569BD; stroke:none"/> <circle cx="130.233567379808" cy="527.467026193171" r="3.61996508413462" style="fill:#5499C7; stroke:none"/> <circle cx="243.176478004808" cy="408.245998148855" r="3.61996508413462" style="fill:#5499C7; stroke:none"/> <circle cx="243.176478004808" cy="599.548543530085" r="3.61996508413462" style="fill:#5499C7; stroke:none"/> <circle cx="280.824114879808" cy="505.095418723885" r="3.61996508413462" style="fill:#5499C7; stroke:none"/> <circle cx="280.824114879808" cy="606.689948093465" r="3.61996508413462" style="fill:#5499C7; stroke:none"/> <circle cx="318.471751754808" cy="344.940874496326" r="3.61996508413462" style="fill:#5499C7; stroke:none"/> <circle cx="318.471751754808" cy="362.393495887968" r="3.61996508413462" style="fill:#5499C7; stroke:none"/> <circle cx="318.471751754808" cy="579.871242569703" r="3.61996508413462" style="fill:#5499C7; stroke:none"/> <circle cx="356.119388629808" cy="225.282102231629" r="3.61996508413462" style="fill:#5499C7; stroke:none"/> <circle cx="356.119388629808" cy="237.607490351443" r="3.61996508413462" style="fill:#5499C7; stroke:none"/> <circle cx="356.119388629808" cy="245.645638985242" r="3.61996508413462" style="fill:#5499C7; stroke:none"/> <circle cx="356.119388629808" cy="291.553539229167" r="3.61996508413462" style="fill:#5499C7; stroke:none"/> <circle cx="356.119388629808" cy="436.130352092932" r="3.61996508413462" style="fill:#5499C7; stroke:none"/> <circle cx="393.767025504808" cy="604.424907468377" r="3.61996508413462" style="fill:#5499C7; stroke:none"/> <circle cx="431.414662379808" cy="259.886168758631" r="3.61996508413462" style="fill:#5499C7; stroke:none"/> <circle cx="431.414662379808" cy="276.899346494109" r="3.61996508413462" style="fill:#5499C7; stroke:none"/> <circle cx="431.414662379808" cy="283.007322345292" r="3.61996508413462" style="fill:#5499C7; stroke:none"/> <circle cx="431.414662379808" cy="350.129833884782" r="3.61996508413462" style="fill:#5499C7; stroke:none"/> <circle cx="431.414662379808" cy="446.606515651124" r="3.61996508413462" style="fill:#5499C7; stroke:none"/> <circle cx="431.414662379808" cy="595.548123147978" r="3.61996508413462" style="fill:#5499C7; stroke:none"/> <circle cx="431.414662379808" cy="607.615069480305" r="3.61996508413462" style="fill:#5499C7; stroke:none"/> <circle cx="469.062299254808" cy="529.820135276603" r="3.61996508413462" style="fill:#5499C7; stroke:none"/> <circle cx="469.062299254808" cy="611.682759255934" r="3.61996508413462" style="fill:#5499C7; stroke:none"/> <circle cx="582.005209879808" cy="519.868204537855" r="3.61996508413462" style="fill:#5499C7; stroke:none"/> <circle cx="582.005209879808" cy="539.011889909028" r="3.61996508413462" style="fill:#5499C7; stroke:none"/> <circle cx="582.005209879808" cy="549.486696817417" r="3.61996508413462" style="fill:#5499C7; stroke:none"/> <circle cx="657.300483629808" cy="223.510090031102" r="3.61996508413462" style="fill:#5499C7; stroke:none"/> <circle cx="657.300483629808" cy="407.681179614175" r="3.61996508413462" style="fill:#5499C7; stroke:none"/> <circle cx="657.300483629808" cy="460.482668274706" r="3.61996508413462" style="fill:#5499C7; stroke:none"/> <circle cx="657.300483629808" cy="518.582778849443" r="3.61996508413462" style="fill:#5499C7; stroke:none"/> <circle cx="657.300483629808" cy="595.067529230533" r="3.61996508413462" style="fill:#5499C7; stroke:none"/> <circle cx="619.652846754808" cy="449.19850742934" r="3.61996508413462" style="fill:#5499C7; stroke:none"/> <circle cx="619.652846754808" cy="505.745932304458" r="3.61996508413462" style="fill:#5499C7; stroke:none"/> <path d="M88.9659654206731,584.041103040683 L96.2058955889423,584.041103040683 L92.5859305048077,576.801172872414 Z" style="fill:#C0392B;stroke:none"/> <path d="M88.9659654206731,617.48681674416 L96.2058955889423,617.48681674416 L92.5859305048077,610.246886575891 Z" style="fill:#C0392B;stroke:none"/> <path d="M126.613602295673,376.836134776123 L133.853532463942,376.836134776123 L130.233567379808,369.596204607854 Z" style="fill:#C0392B;stroke:none"/> <path d="M126.613602295673,384.524043101841 L133.853532463942,384.524043101841 L130.233567379808,377.284112933572 Z" style="fill:#C0392B;stroke:none"/> <path d="M164.261239170673,535.075315590042 L171.501169338942,535.075315590042 L167.881204254808,527.835385421773 Z" style="fill:#C0392B;stroke:none"/> <path d="M164.261239170673,557.401023074325 L171.501169338942,557.401023074325 L167.881204254808,550.161092906056 Z" style="fill:#C0392B;stroke:none"/> <path d="M164.261239170673,606.042797330332 L171.501169338942,606.042797330332 L167.881204254808,598.802867162063 Z" style="fill:#C0392B;stroke:none"/> <path d="M201.908876045673,608.117228658088 L209.148806213942,608.117228658088 L205.528841129808,600.877298489819 Z" style="fill:#C0392B;stroke:none"/> <path d="M201.908876045673,621.151918516608 L209.148806213942,621.151918516608 L205.528841129808,613.911988348339 Z" style="fill:#C0392B;stroke:none"/> <path d="M239.556512920673,418.423330056146 L246.796443088942,418.423330056146 L243.176478004808,411.183399887877 Z" style="fill:#C0392B;stroke:none"/> <path d="M239.556512920673,563.182046322967 L246.796443088942,563.182046322967 L243.176478004808,555.942116154698 Z" style="fill:#C0392B;stroke:none"/> <path d="M277.204149795673,564.591493138917 L284.444079963942,564.591493138917 L280.824114879808,557.351562970647 Z" style="fill:#C0392B;stroke:none"/> <path d="M277.204149795673,587.366703924618 L284.444079963942,587.366703924618 L280.824114879808,580.126773756349 Z" style="fill:#C0392B;stroke:none"/> <path d="M314.851786670673,266.030519239129 L322.091716838942,266.030519239129 L318.471751754808,258.79058907086 Z" style="fill:#C0392B;stroke:none"/> <path d="M314.851786670673,278.77420771489 L322.091716838942,278.77420771489 L318.471751754808,271.534277546621 Z" style="fill:#C0392B;stroke:none"/> <path d="M314.851786670673,400.16553700638 L322.091716838942,400.16553700638 L318.471751754808,392.925606838111 Z" style="fill:#C0392B;stroke:none"/> <path d="M314.851786670673,539.535301817647 L322.091716838942,539.535301817647 L318.471751754808,532.295371649378 Z" style="fill:#C0392B;stroke:none"/> <path d="M314.851786670673,559.304176639737 L322.091716838942,559.304176639737 L318.471751754808,552.064246471468 Z" style="fill:#C0392B;stroke:none"/> <path d="M352.499423545673,505.265875575404 L359.739353713942,505.265875575404 L356.119388629808,498.025945407135 Z" style="fill:#C0392B;stroke:none"/> <path d="M352.499423545673,534.434750774691 L359.739353713942,534.434750774691 L356.119388629808,527.194820606422 Z" style="fill:#C0392B;stroke:none"/> <path d="M352.499423545673,566.745853026198 L359.739353713942,566.745853026198 L356.119388629808,559.505922857928 Z" style="fill:#C0392B;stroke:none"/> <path d="M352.499423545673,610.899829733636 L359.739353713942,610.899829733636 L356.119388629808,603.659899565367 Z" style="fill:#C0392B;stroke:none"/> <path d="M390.147060420673,507.631646723664 L397.386990588942,507.631646723664 L393.767025504808,500.391716555395 Z" style="fill:#C0392B;stroke:none"/> <path d="M390.147060420673,598.326513137606 L397.386990588942,598.326513137606 L393.767025504808,591.086582969336 Z" style="fill:#C0392B;stroke:none"/> <path d="M427.794697295673,269.528188539754 L435.034627463942,269.528188539754 L431.414662379808,262.288258371484 Z" style="fill:#C0392B;stroke:none"/> <path d="M427.794697295673,432.991940074754 L435.034627463942,432.991940074754 L431.414662379808,425.752009906485 Z" style="fill:#C0392B;stroke:none"/> <path d="M427.794697295673,455.053100847438 L435.034627463942,455.053100847438 L431.414662379808,447.813170679168 Z" style="fill:#C0392B;stroke:none"/> <path d="M427.794697295673,466.617069989982 L435.034627463942,466.617069989982 L431.414662379808,459.377139821713 Z" style="fill:#C0392B;stroke:none"/> <path d="M427.794697295673,509.566681559448 L435.034627463942,509.566681559448 L431.414662379808,502.326751391179 Z" style="fill:#C0392B;stroke:none"/> <path d="M427.794697295673,515.244260985312 L435.034627463942,515.244260985312 L431.414662379808,508.004330817042 Z" style="fill:#C0392B;stroke:none"/> <path d="M427.794697295673,567.450632598895 L435.034627463942,567.450632598895 L431.414662379808,560.210702430625 Z" style="fill:#C0392B;stroke:none"/> <path d="M465.442334170673,345.929843395699 L472.682264338942,345.929843395699 L469.062299254808,338.68991322743 Z" style="fill:#C0392B;stroke:none"/> <path d="M465.442334170673,360.355552968383 L472.682264338942,360.355552968383 L469.062299254808,353.115622800114 Z" style="fill:#C0392B;stroke:none"/> <path d="M465.442334170673,401.011634266897 L472.682264338942,401.011634266897 L469.062299254808,393.771704098628 Z" style="fill:#C0392B;stroke:none"/> <path d="M465.442334170673,624.968626629256 L472.682264338942,624.968626629256 L469.062299254808,617.728696460986 Z" style="fill:#C0392B;stroke:none"/> <path d="M540.737607920673,598.830394760591 L547.977538088942,598.830394760591 L544.357573004808,591.590464592322 Z" style="fill:#C0392B;stroke:none"/> <path d="M578.385244795673,562.759902125911 L585.625174963942,562.759902125911 L582.005209879808,555.519971957642 Z" style="fill:#C0392B;stroke:none"/> <path d="M578.385244795673,609.063830333477 L585.625174963942,609.063830333477 L582.005209879808,601.823900165208 Z" style="fill:#C0392B;stroke:none"/> <path d="M578.385244795673,621.007096874836 L585.625174963942,621.007096874836 L582.005209879808,613.767166706567 Z" style="fill:#C0392B;stroke:none"/> <path d="M653.680518545673,336.933446334916 L660.920448713942,336.933446334916 L657.300483629808,329.693516166647 Z" style="fill:#C0392B;stroke:none"/> <path d="M653.680518545673,561.71064728209 L660.920448713942,561.71064728209 L657.300483629808,554.47071711382 Z" style="fill:#C0392B;stroke:none"/> <path d="M616.032881670673,130.298497095948 L623.272811838942,130.298497095948 L619.652846754808,123.058566927678 Z" style="fill:#C0392B;stroke:none"/> <path d="M616.032881670673,203.88906123048 L623.272811838942,203.88906123048 L619.652846754808,196.649131062211 Z" style="fill:#C0392B;stroke:none"/> <path d="M616.032881670673,250.190614576185 L623.272811838942,250.190614576185 L619.652846754808,242.950684407916 Z" style="fill:#C0392B;stroke:none"/> <path d="M616.032881670673,357.168104256062 L623.272811838942,357.168104256062 L619.652846754808,349.928174087792 Z" style="fill:#C0392B;stroke:none"/><line x1="122.993637211538" y1="423.235847931317" x2="130.233567379808" y2="423.235847931317" style="stroke:#52BE80; stroke-width:0.25"/> <line x1="235.936547836538" y1="551.024345590345" x2="243.176478004808" y2="546.197725478165" style="stroke:#A569BD; stroke-width:0.25"/> <line x1="235.936547836538" y1="568.709180206613" x2="243.176478004808" y2="568.709180206613" style="stroke:#A569BD; stroke-width:0.25"/> <line x1="122.993637211538" y1="527.467026193171" x2="130.233567379808" y2="527.467026193171" style="stroke:#5499C7; stroke-width:0.25"/> <line x1="235.936547836538" y1="408.245998148855" x2="243.176478004808" y2="408.245998148855" style="stroke:#5499C7; stroke-width:0.25"/> <line x1="235.936547836538" y1="599.548543530085" x2="243.176478004808" y2="599.548543530085" style="stroke:#5499C7; stroke-width:0.25"/> <line x1="273.584184711539" y1="505.095418723885" x2="280.824114879808" y2="505.095418723885" style="stroke:#5499C7; stroke-width:0.25"/> <line x1="273.584184711539" y1="606.689948093465" x2="280.824114879808" y2="606.689948093465" style="stroke:#5499C7; stroke-width:0.25"/> <line x1="311.231821586539" y1="344.940874496326" x2="318.471751754808" y2="344.940874496326" style="stroke:#5499C7; stroke-width:0.25"/> <line x1="311.231821586539" y1="362.393495887968" x2="318.471751754808" y2="362.393495887968" style="stroke:#5499C7; stroke-width:0.25"/> <line x1="311.231821586539" y1="579.871242569703" x2="318.471751754808" y2="579.871242569703" style="stroke:#5499C7; stroke-width:0.25"/> <line x1="348.879458461538" y1="234.935342455988" x2="356.119388629808" y2="225.282102231629" style="stroke:#5499C7; stroke-width:0.25"/> <line x1="348.879458461538" y1="235.992398760883" x2="356.119388629808" y2="237.607490351443" style="stroke:#5499C7; stroke-width:0.25"/> <line x1="348.879458461538" y1="237.607490351443" x2="356.119388629808" y2="245.645638985242" style="stroke:#5499C7; stroke-width:0.25"/> <line x1="348.879458461538" y1="291.553539229167" x2="356.119388629808" y2="291.553539229167" style="stroke:#5499C7; stroke-width:0.25"/> <line x1="348.879458461538" y1="436.130352092932" x2="356.119388629808" y2="436.130352092932" style="stroke:#5499C7; stroke-width:0.25"/> <line x1="386.527095336538" y1="599.598287356198" x2="393.767025504808" y2="604.424907468377" style="stroke:#5499C7; stroke-width:0.25"/> <line x1="424.174732211538" y1="269.53940898299" x2="431.414662379808" y2="259.886168758631" style="stroke:#5499C7; stroke-width:0.25"/> <line x1="424.174732211538" y1="272.07272638193" x2="431.414662379808" y2="276.899346494109" style="stroke:#5499C7; stroke-width:0.25"/> <line x1="424.174732211538" y1="273.354082120933" x2="431.414662379808" y2="283.007322345292" style="stroke:#5499C7; stroke-width:0.25"/> <line x1="424.174732211538" y1="350.129833884782" x2="431.414662379808" y2="350.129833884782" style="stroke:#5499C7; stroke-width:0.25"/> <line x1="424.174732211538" y1="451.433135763303" x2="431.414662379808" y2="446.606515651124" style="stroke:#5499C7; stroke-width:0.25"/> <line x1="424.174732211538" y1="600.374743260157" x2="431.414662379808" y2="595.548123147978" style="stroke:#5499C7; stroke-width:0.25"/> <line x1="424.174732211538" y1="602.788449368126" x2="431.414662379808" y2="607.615069480305" style="stroke:#5499C7; stroke-width:0.25"/> <line x1="461.822369086538" y1="529.820135276603" x2="469.062299254808" y2="529.820135276603" style="stroke:#5499C7; stroke-width:0.25"/> <line x1="461.822369086538" y1="616.509379368113" x2="469.062299254808" y2="611.682759255934" style="stroke:#5499C7; stroke-width:0.25"/> <line x1="574.765279711538" y1="519.868204537855" x2="582.005209879808" y2="519.868204537855" style="stroke:#5499C7; stroke-width:0.25"/> <line x1="574.765279711538" y1="539.011889909028" x2="582.005209879808" y2="539.011889909028" style="stroke:#5499C7; stroke-width:0.25"/> <line x1="574.765279711538" y1="554.313316929597" x2="582.005209879808" y2="549.486696817417" style="stroke:#5499C7; stroke-width:0.25"/> <line x1="650.060553461538" y1="223.510090031102" x2="657.300483629808" y2="223.510090031102" style="stroke:#5499C7; stroke-width:0.25"/> <line x1="650.060553461538" y1="407.681179614175" x2="657.300483629808" y2="407.681179614175" style="stroke:#5499C7; stroke-width:0.25"/> <line x1="650.060553461538" y1="460.482668274706" x2="657.300483629808" y2="460.482668274706" style="stroke:#5499C7; stroke-width:0.25"/> <line x1="650.060553461538" y1="518.582778849443" x2="657.300483629808" y2="518.582778849443" style="stroke:#5499C7; stroke-width:0.25"/> <line x1="650.060553461538" y1="595.067529230533" x2="657.300483629808" y2="595.067529230533" style="stroke:#5499C7; stroke-width:0.25"/> <line x1="612.412916586538" y1="449.19850742934" x2="619.652846754808" y2="449.19850742934" style="stroke:#5499C7; stroke-width:0.25"/> <line x1="612.412916586538" y1="505.745932304458" x2="619.652846754808" y2="505.745932304458" style="stroke:#5499C7; stroke-width:0.25"/> <line x1="85.3460003365385" y1="580.421137956549" x2="92.5859305048077" y2="580.421137956549" style="stroke:#C0392B; stroke-width:0.25"/> <line x1="85.3460003365385" y1="613.866851660026" x2="92.5859305048077" y2="613.866851660026" style="stroke:#C0392B; stroke-width:0.25"/> <line x1="122.993637211538" y1="373.216169691988" x2="130.233567379808" y2="373.216169691988" style="stroke:#C0392B; stroke-width:0.25"/> <line x1="122.993637211538" y1="380.904078017707" x2="130.233567379808" y2="380.904078017707" style="stroke:#C0392B; stroke-width:0.25"/> <line x1="160.641274086538" y1="531.455350505908" x2="167.881204254808" y2="531.455350505908" style="stroke:#C0392B; stroke-width:0.25"/> <line x1="160.641274086538" y1="553.781057990191" x2="167.881204254808" y2="553.781057990191" style="stroke:#C0392B; stroke-width:0.25"/> <line x1="160.641274086538" y1="602.422832246197" x2="167.881204254808" y2="602.422832246197" style="stroke:#C0392B; stroke-width:0.25"/> <line x1="198.288910961538" y1="609.323883686133" x2="205.528841129808" y2="604.497263573953" style="stroke:#C0392B; stroke-width:0.25"/> <line x1="198.288910961538" y1="612.705333320294" x2="205.528841129808" y2="617.531953432474" style="stroke:#C0392B; stroke-width:0.25"/> <line x1="235.936547836538" y1="414.803364972012" x2="243.176478004808" y2="414.803364972012" style="stroke:#C0392B; stroke-width:0.25"/> <line x1="235.936547836538" y1="554.735461126653" x2="243.176478004808" y2="559.562081238833" style="stroke:#C0392B; stroke-width:0.25"/> <line x1="273.584184711539" y1="560.971528054782" x2="280.824114879808" y2="560.971528054782" style="stroke:#C0392B; stroke-width:0.25"/> <line x1="273.584184711539" y1="583.746738840483" x2="280.824114879808" y2="583.746738840483" style="stroke:#C0392B; stroke-width:0.25"/> <line x1="311.231821586539" y1="267.237174267174" x2="318.471751754808" y2="262.410554154994" style="stroke:#C0392B; stroke-width:0.25"/> <line x1="311.231821586539" y1="270.327622518576" x2="318.471751754808" y2="275.154242630755" style="stroke:#C0392B; stroke-width:0.25"/> <line x1="311.231821586539" y1="396.545571922245" x2="318.471751754808" y2="396.545571922245" style="stroke:#C0392B; stroke-width:0.25"/> <line x1="311.231821586539" y1="535.915336733513" x2="318.471751754808" y2="535.915336733513" style="stroke:#C0392B; stroke-width:0.25"/> <line x1="311.231821586539" y1="555.684211555603" x2="318.471751754808" y2="555.684211555603" style="stroke:#C0392B; stroke-width:0.25"/> <line x1="348.879458461538" y1="501.645910491269" x2="356.119388629808" y2="501.645910491269" style="stroke:#C0392B; stroke-width:0.25"/> <line x1="348.879458461538" y1="530.814785690557" x2="356.119388629808" y2="530.814785690557" style="stroke:#C0392B; stroke-width:0.25"/> <line x1="348.879458461538" y1="563.125887942063" x2="356.119388629808" y2="563.125887942063" style="stroke:#C0392B; stroke-width:0.25"/> <line x1="348.879458461538" y1="607.279864649502" x2="356.119388629808" y2="607.279864649502" style="stroke:#C0392B; stroke-width:0.25"/> <line x1="386.527095336538" y1="504.011681639529" x2="393.767025504808" y2="504.011681639529" style="stroke:#C0392B; stroke-width:0.25"/> <line x1="386.527095336538" y1="599.53316816565" x2="393.767025504808" y2="594.706548053471" style="stroke:#C0392B; stroke-width:0.25"/> <line x1="424.174732211538" y1="270.734843567799" x2="431.414662379808" y2="265.908223455619" style="stroke:#C0392B; stroke-width:0.25"/> <line x1="424.174732211538" y1="429.37197499062" x2="431.414662379808" y2="429.37197499062" style="stroke:#C0392B; stroke-width:0.25"/> <line x1="424.174732211538" y1="451.433135763303" x2="431.414662379808" y2="451.433135763303" style="stroke:#C0392B; stroke-width:0.25"/> <line x1="424.174732211538" y1="458.170484793668" x2="431.414662379808" y2="462.997104905847" style="stroke:#C0392B; stroke-width:0.25"/> <line x1="424.174732211538" y1="505.946716475313" x2="431.414662379808" y2="505.946716475313" style="stroke:#C0392B; stroke-width:0.25"/> <line x1="424.174732211538" y1="511.624295901177" x2="431.414662379808" y2="511.624295901177" style="stroke:#C0392B; stroke-width:0.25"/> <line x1="424.174732211538" y1="563.83066751476" x2="431.414662379808" y2="563.83066751476" style="stroke:#C0392B; stroke-width:0.25"/> <line x1="461.822369086538" y1="342.309878311565" x2="469.062299254808" y2="342.309878311565" style="stroke:#C0392B; stroke-width:0.25"/> <line x1="461.822369086538" y1="356.735587884249" x2="469.062299254808" y2="356.735587884249" style="stroke:#C0392B; stroke-width:0.25"/> <line x1="461.822369086538" y1="397.391669182762" x2="469.062299254808" y2="397.391669182762" style="stroke:#C0392B; stroke-width:0.25"/> <line x1="461.822369086538" y1="616.522041432942" x2="469.062299254808" y2="621.348661545121" style="stroke:#C0392B; stroke-width:0.25"/> <line x1="537.117642836538" y1="595.210429676456" x2="544.357573004808" y2="595.210429676456" style="stroke:#C0392B; stroke-width:0.25"/> <line x1="574.765279711538" y1="554.313316929597" x2="582.005209879808" y2="559.139937041776" style="stroke:#C0392B; stroke-width:0.25"/> <line x1="574.765279711538" y1="605.443865249342" x2="582.005209879808" y2="605.443865249342" style="stroke:#C0392B; stroke-width:0.25"/> <line x1="574.765279711538" y1="617.387131790702" x2="582.005209879808" y2="617.387131790702" style="stroke:#C0392B; stroke-width:0.25"/> <line x1="650.060553461538" y1="333.313481250782" x2="657.300483629808" y2="333.313481250782" style="stroke:#C0392B; stroke-width:0.25"/> <line x1="650.060553461538" y1="558.090682197955" x2="657.300483629808" y2="558.090682197955" style="stroke:#C0392B; stroke-width:0.25"/> <line x1="612.412916586538" y1="126.678532011813" x2="619.652846754808" y2="126.678532011813" style="stroke:#C0392B; stroke-width:0.25"/> <line x1="612.412916586538" y1="200.269096146346" x2="619.652846754808" y2="200.269096146346" style="stroke:#C0392B; stroke-width:0.25"/> <line x1="612.412916586538" y1="246.57064949205" x2="619.652846754808" y2="246.57064949205" style="stroke:#C0392B; stroke-width:0.25"/> <line x1="612.412916586538" y1="353.548139171927" x2="619.652846754808" y2="353.548139171927" style="stroke:#C0392B; stroke-width:0.25"/><rect x="566.92912" y="159.448815" width="8" height="8" style="fill:#52BE80;stroke:none"/> <rect x="566.92912" y="173.622043" width="8" height="8" style="fill:#A569BD;stroke:none"/> <circle cx="570.92912" cy="191.795271" r="4" style="fill:#5499C7;stroke:none"/> <path d="M566.92912,209.968499 L574.92912,209.968499 L570.92912,201.968499 Z" style="fill:#C0392B; stroke:none"/><text x="581.92912" y="167.448815" font-size="12" font-family="Arial" fill="black" >duplication</text> <text x="581.92912" y="181.622043" font-size="12" font-family="Arial" fill="black" >inversion</text> <text x="581.92912" y="195.795271" font-size="12" font-family="Arial" fill="black" >insertion</text> <text x="581.92912" y="209.968499" font-size="12" font-family="Arial" fill="black" >deletion</text></svg>