<?xml version="1.0" encoding="utf-8"?>
<!DOCTYPE svg PUBLIC "-//W3C//DTD SVG 1.1//EN" "http://www.w3.org/Graphics/SVG/1.1/DTD/svg11.dtd"><svg version='1.1' xmlns='http://www.w3.org/2000/svg' width='1000px' height='1000px' viewBox='0 0 100 100'><g class="drawcontainer"><rect x="0" y="0" width="100%" height="100%" stroke="none" fill="white"></rect><svg class="svgcontainer" width="90" height="90" x="5" y="5" viewBox="0 0 1000 1000" preserveAspectRatio="none"><g class="container"><rect x="0" y="0" width="100%" height="100%" stroke="none" fill="white"></rect><line x1="18.074479605580528" y1="1000" x2="18.074479605580528" y2="0" class="break-lines" stroke-width="1.25" stroke="#2b2b2b" style="stroke-dasharray: 3, 3;"></line><line x1="100.97875659670001" y1="1000" x2="100.97875659670001" y2="0" class="break-lines" stroke-width="1.25" stroke="#2b2b2b" style="stroke-dasharray: 3, 3;"></line><line x1="127.54266201468843" y1="1000" x2="127.54266201468843" y2="0" class="break-lines" stroke-width="1.25" stroke="#2b2b2b" style="stroke-dasharray: 3, 3;"></line><line x1="210.95235329869644" y1="1000" x2="210.95235329869644" y2="0" class="break-lines" stroke-width="1.25" stroke="#2b2b2b" style="stroke-dasharray: 3, 3;"></line><line x1="264.6626237922685" y1="1000" x2="264.6626237922685" y2="0" class="break-lines" stroke-width="1.25" stroke="#2b2b2b" style="stroke-dasharray: 3, 3;"></line><line x1="287.46821672481633" y1="1000" x2="287.46821672481633" y2="0" class="break-lines" stroke-width="1.25" stroke="#2b2b2b" style="stroke-dasharray: 3, 3;"></line><line x1="361.86624000802453" y1="1000" x2="361.86624000802453" y2="0" class="break-lines" stroke-width="1.25" stroke="#2b2b2b" style="stroke-dasharray: 3, 3;"></line><line x1="433.27104262340947" y1="1000" x2="433.27104262340947" y2="0" class="break-lines" stroke-width="1.25" stroke="#2b2b2b" style="stroke-dasharray: 3, 3;"></line><line x1="467.6648688315039" y1="1000" x2="467.6648688315039" y2="0" class="break-lines" stroke-width="1.25" stroke="#2b2b2b" style="stroke-dasharray: 3, 3;"></line><line x1="532.3036201092691" y1="1000" x2="532.3036201092691" y2="0" class="break-lines" stroke-width="1.25" stroke="#2b2b2b" style="stroke-dasharray: 3, 3;"></line><line x1="589.3092709825709" y1="1000" x2="589.3092709825709" y2="0" class="break-lines" stroke-width="1.25" stroke="#2b2b2b" style="stroke-dasharray: 3, 3;"></line><line x1="679.6394342923473" y1="1000" x2="679.6394342923473" y2="0" class="break-lines" stroke-width="1.25" stroke="#2b2b2b" style="stroke-dasharray: 3, 3;"></line><line x1="759.1313605320518" y1="1000" x2="759.1313605320518" y2="0" class="break-lines" stroke-width="1.25" stroke="#2b2b2b" style="stroke-dasharray: 3, 3;"></line><line x1="825.0935762973481" y1="1000" x2="825.0935762973481" y2="0" class="break-lines" stroke-width="1.25" stroke="#2b2b2b" style="stroke-dasharray: 3, 3;"></line><line x1="922.0447740805533" y1="1000" x2="922.0447740805533" y2="0" class="break-lines" stroke-width="1.25" stroke="#2b2b2b" style="stroke-dasharray: 3, 3;"></line><line x1="0" y1="982.0557131824663" x2="1000" y2="982.0557131824663" class="break-lines" stroke-width="1.25" stroke="#2b2b2b" style="stroke-dasharray: 3, 3;"></line><line x1="0" y1="874.2061456809524" x2="1000" y2="874.2061456809524" class="break-lines" stroke-width="1.25" stroke="#2b2b2b" style="stroke-dasharray: 3, 3;"></line><line x1="0" y1="847.9567594152954" x2="1000" y2="847.9567594152954" class="break-lines" stroke-width="1.25" stroke="#2b2b2b" style="stroke-dasharray: 3, 3;"></line><line x1="0" y1="764.9850135126827" x2="1000" y2="764.9850135126827" class="break-lines" stroke-width="1.25" stroke="#2b2b2b" style="stroke-dasharray: 3, 3;"></line><line x1="0" y1="716.1216537266623" x2="1000" y2="716.1216537266623" class="break-lines" stroke-width="1.25" stroke="#2b2b2b" style="stroke-dasharray: 3, 3;"></line><line x1="0" y1="693.8502766120685" x2="1000" y2="693.8502766120685" class="break-lines" stroke-width="1.25" stroke="#2b2b2b" style="stroke-dasharray: 3, 3;"></line><line x1="0" y1="605.6434083457764" x2="1000" y2="605.6434083457764" class="break-lines" stroke-width="1.25" stroke="#2b2b2b" style="stroke-dasharray: 3, 3;"></line><line x1="0" y1="535.3119370592798" x2="1000" y2="535.3119370592798" class="break-lines" stroke-width="1.25" stroke="#2b2b2b" style="stroke-dasharray: 3, 3;"></line><line x1="0" y1="500.6623698946356" x2="1000" y2="500.6623698946356" class="break-lines" stroke-width="1.25" stroke="#2b2b2b" style="stroke-dasharray: 3, 3;"></line><line x1="0" y1="437.4417952455906" x2="1000" y2="437.4417952455906" class="break-lines" stroke-width="1.25" stroke="#2b2b2b" style="stroke-dasharray: 3, 3;"></line><line x1="0" y1="383.18944789595446" x2="1000" y2="383.18944789595446" class="break-lines" stroke-width="1.25" stroke="#2b2b2b" style="stroke-dasharray: 3, 3;"></line><line x1="0" y1="285.00104850669914" x2="1000" y2="285.00104850669914" class="break-lines" stroke-width="1.25" stroke="#2b2b2b" style="stroke-dasharray: 3, 3;"></line><line x1="0" y1="204.1335586991106" x2="1000" y2="204.1335586991106" class="break-lines" stroke-width="1.25" stroke="#2b2b2b" style="stroke-dasharray: 3, 3;"></line><line x1="0" y1="139.53165016426613" x2="1000" y2="139.53165016426613" class="break-lines" stroke-width="1.25" stroke="#2b2b2b" style="stroke-dasharray: 3, 3;"></line><line x1="0" y1="76.63918652723646" x2="1000" y2="76.63918652723646" class="break-lines" stroke-width="1.25" stroke="#2b2b2b" style="stroke-dasharray: 3, 3;"></line><path d="" class="content-lines s_0 idy_0" stroke-width="2.5px" stroke="#ffd84b" stroke-linecap="round" style="display: none;"></path><path d="" class="content-lines s_0_01 idy_0" stroke-width="2.5px" stroke="#ffd84b" stroke-linecap="round" style="display: none;"></path><path d="M759.0976222513613 383.1437178447419 L759.0741126914669 383.12653749401 M759.0949000917944 437.40541332639384 L759.0750200779889 437.38823297566194 M759.0750200779889 139.61123561250895 L759.0976222513613 139.59809769724347 M759.0976222513613 535.2705863131557 L759.0750200779889 535.2569430934568 M110.62757491548108 904.4476896218049 L110.64399036256525 904.4322778365896" class="content-lines s_0_02 idy_0" stroke-width="2.5px" stroke="#ffd84b" stroke-linecap="round" style="display: none;"></path><path d="M759.0974572719936 764.9476209846193 L759.0741126914669 764.9236190240382 M532.1792256660383 982.1539948947409 L532.202075308462 982.1244345853935 M759.0976222513613 764.9091336302839 L759.0750200779889 764.8793206687199 M619.514765983366 904.4296670970176 L619.5395953782021 904.4058335712475 M759.0974572719936 847.8924173174566 L759.0750200779889 847.8657203998979 M759.0976222513613 982.0066144350318 L759.0741126914669 981.9759592994122 M759.0976222513613 764.9259771113935 L759.0741126914669 764.9067755429286 M759.0750200779889 874.2924685216392 L759.0974572719936 874.2725089965244" class="content-lines s_0_03 idy_0" stroke-width="2.5px" stroke="#ffd84b" stroke-linecap="round" style="display: none;"></path><path d="M287.43233371234595 605.5662652022944 L287.1655620748069 605.2969379393517 M532.2912466566931 716.1215695092567 L532.0041825569294 715.851315854853 M589.1419819037432 765.1687758915887 L589.3091884928871 764.99074029626 M759.0976222513613 284.9520339766701 L758.8441314529205 284.7096562835028 M433.6451333396246 694.260162724871 L433.4517775207032 694.0560197338225 M759.0974572719936 139.48322515607595 L758.9128453595594 139.29255694991502 M100.9337172293233 693.7332986357623 L100.78424592220497 693.5901290463305 M287.43233371234595 383.10295662045655 L287.1900615109074 382.8596525358282 M100.78424592220497 76.90034470184094 L100.9337172293233 76.74681637152685 M0.05130858334856643 535.238667916453 L0.2223921876330146 535.07225432309 M467.28855089382523 285.2406470254833 L467.47992696033435 285.0436625139065 M361.8620330341488 76.62428004645426 L361.7081897737869 76.4731098034955 M100.78424592220497 765.2498772531314 L100.9337172293233 765.0859901819349 M18.227003031000944 693.9954674192334 L18.129087776282695 693.8917115755983 M18.073819688109808 874.2018505932696 L17.968975299948987 874.1009581414229 M758.295905014119 764.6084774924773 L758.062046760432 764.3674472777986 M210.93841254212748 693.8329278265256 L210.83241329839288 693.7200765030911 M287.45031646342306 500.6361782815101 L287.32245745347086 500.5078309554549 M679.8334500287394 437.3932860199949 L680.0708553388313 437.15486654488836 M588.8583823707007 0.2892025706521508 L589.058502343697 0.08463849257577749 M759.0976222513613 847.9070711460221 L758.9958299815025 847.8124949995915 M127.7022795529191 139.80586203673067 L127.59347565993399 139.68930514745205 M100.9337172293233 999.8702209780504 L100.78333853568273 999.705744385015 M532.2857198478758 693.8329278265256 L532.1792256660383 693.7263928085073 M922.2691460205987 694.0944228707524 L922.1067238331174 693.9272513207395 M100.78333853568273 500.87931393132743 L100.94617317158317 500.7072577717927 M589.342266856107 847.869425965742 L589.3980298823828 847.8124949995915 M589.1938679148786 874.0517751765829 L588.8630017929958 873.7294751655504 M589.039364737046 204.41316048553017 L589.3048165396435 204.14964422357025 M762.4143674592056 874.6049150962226 L762.2931901136444 874.482968292989 M211.34690145650384 535.6859465573187 L211.01554039651802 535.3665941554805 M532.2671596690118 139.48322515607595 L532.1987757211083 139.41138770914336 M264.3197966662289 874.451470983314 L264.4090505041439 874.33331396333 M127.230191092302 874.451470983314 L127.31919746116552 874.33331396333 M532.6151011554496 874.451470983314 L532.5265897246891 874.33331396333 M17.868832823767058 383.40790784594617 L18.073819688109808 383.19087959184867 M264.6052934619996 848.0340709935886 L264.6542098445168 847.9760452011659 M532.7465072218068 501.00328195229423 L532.5703092571243 500.81370857240546 M532.1792256660383 874.3627058378663 L532.2671596690118 874.2725089965244 M532.1965484996446 848.1132353548037 L532.2674896277472 848.0451876911209 M361.7257600764449 848.1780827570758 L361.788617215531 848.107592788632 M127.56716145078897 76.57964482151385 L127.70557914027272 76.44152827641506 M532.2671596690118 605.5825191615652 L532.1965484996446 605.5113554538771 M127.22515922158776 982.2321486470895 L127.31721770875335 982.1410254142864 M761.2623165346942 764.7409514714044 L761.3881957922342 764.6293634090532 M127.7022795529191 716.3489565042366 L127.61616032299 716.2605282284111 M532.6210404126859 982.2330750385505 L532.5285694771012 982.1410254142864 M680.0713502769344 848.2567418138576 L679.9550398227198 848.1372373153849 M761.2600068235466 715.9619775257431 L761.30776835049 715.9131314305253 M100.85609443682974 284.7983372115449 L100.78333853568273 284.72279419876827 M210.92884373880202 204.11477821767335 L210.85196335346302 204.03173985580293 M127.1853991939768 716.3940128162048 L127.27490050094333 716.3042370618905 M264.3138574089924 982.2330750385505 L264.4070707517318 982.1410254142864 M264.4018739016499 500.569309661505 L264.31055782163884 500.47254386253024 M761.4241612943885 693.5849075671865 L761.7424889843276 693.2574702944157 M532.5703917468081 693.6494180998363 L532.9472046225899 693.2586493380933 M127.14506173857897 139.9274719703419 L127.2749829906272 139.74000402559193 M532.5337663271831 500.569309661505 L532.6337438239974 500.4685856444695 M127.2749829906272 999.7716023961536 L127.14506173857897 999.5856503647035 M127.23860504005368 605.2975274611906 L127.16815885005423 605.2176893607309 M266.1845584591191 501.03806374078556 L266.10908039840535 500.9620996409812 M679.8040837012923 873.951135376953 L680.0954372646156 873.6756602434051 M467.4607068639996 204.41316048553017 L467.5653037831089 204.3091519896784 M17.592162424167235 437.8627980559254 L17.943321008274705 437.5048740823461 M468.1514754764769 606.190821481839 L467.70066935429054 605.6976443549495 M922.2670012888187 437.30216278719195 L922.5277511794375 437.0236558270444 M264.31220761531563 76.90295544141293 L264.36582590981175 76.84012925687398 M679.8040837012923 764.6796412001654 L680.0527076083865 764.4794564271776 M17.591007568593472 606.190821481839 L18.039421489948467 605.6976443549495 M679.8040837012923 382.9121199794846 L680.0282906619698 382.7095771191415 M127.22260204138871 76.90295544141293 L127.27580788746559 76.84012925687398 M532.6226902063628 76.90295544141293 L532.569484360286 76.84012925687398 M532.6210404126859 716.3489565042366 L532.5703917468081 716.3042370618905 M922.2321906422383 764.6796412001654 L922.4224943428575 764.4898993854656 M680.0725051325081 285.241826069161 L680.0253210333516 285.1999700186036 M211.37197832039126 285.241826069161 L211.32479422123467 285.1999700186036 M921.5979274631915 285.241826069161 L921.6450290726642 285.1999700186036 M127.2242518350655 500.87931393132743 L127.2749829906272 500.81370857240546 M264.3138574089924 500.87931393132743 L264.3650010129733 500.81370857240546 M264.3009890183134 764.6313846267864 L264.1234712186894 764.4826566885885 M762.407933263866 437.9690804217271 L762.3329501412553 437.8927794523005" class="content-lines s_0_05 idy_0" stroke-width="2.5px" stroke="#ffd84b" stroke-linecap="round" style="display: none;"></path><path d="" class="content-lines s_1 idy_0" stroke-width="2.5px" stroke="#ffd84b" stroke-linecap="round" style="display: none;"></path><path d="" class="content-lines s_2 idy_0" stroke-width="2.5px" stroke="#ffd84b" stroke-linecap="round"></path><path d="" class="content-lines s_0 idy_1" stroke-width="2.5px" stroke="#d5670b" stroke-linecap="round" style="display: none;"></path><path d="M911.134523516489 693.218814505269 L911.1228924710676 693.2068556336812 M361.72394530340034 605.4092839583528 L361.7143765000749 605.3995147393093" class="content-lines s_0_01 idy_1" stroke-width="2.5px" stroke="#d5670b" stroke-linecap="round" style="display: none;"></path><path d="M759.0750200779889 605.7013499207935 L759.0974572719936 605.6815588304897 M759.0974572719936 284.9373801481048 L759.0750200779889 284.9175890578009 M129.32674889678296 437.8835155376902 L129.30983851159576 437.8667562739862 M619.8392803995932 848.7071364987287 L619.8580055578249 848.6878507128582 M999.4897188157648 715.8329564604435 L999.4716535750039 715.814597066034" class="content-lines s_0_02 idy_1" stroke-width="2.5px" stroke="#d5670b" stroke-linecap="round" style="display: none;"></path><path d="M210.83241329839288 874.3690221432825 L210.85526294081663 874.3466203134067 M210.85526294081663 605.5169980200487 L210.83241329839288 605.4968700601228 M759.0750200779889 0.07941701343179375 L759.0976222513613 0.05920483610032079 M264.31220761531563 765.2524879927034 L264.33835684509296 765.2284018147167 M127.22268453107255 765.2524037752978 L127.24833882274683 765.2284018147167 M532.6226902063628 765.2524879927034 L532.5969534250047 765.2284018147167 M127.23406810744248 535.0906979349049 L127.20907373323892 535.07225432309 M211.3823720205551 501.03216852239717 L211.34566411124626 501.0002501256945 M825.2979032442203 204.41316048553017 L825.2642474532134 204.3793050884999 M127.24833882274683 284.7464592897272 L127.2242518350655 284.72279419876827 M532.5969534250047 284.7464592897272 L532.6210404126859 284.72279419876827 M264.33835684509296 284.7464592897272 L264.3138574089924 284.72279419876827" class="content-lines s_0_03 idy_1" stroke-width="2.5px" stroke="#d5670b" stroke-linecap="round" style="display: none;"></path><path d="M762.3322077341008 763.5576969234539 L762.4223689585381 763.4658999514065 M432.9072631176745 535.6856096876966 L433.0464232143128 535.5523777521196 M467.9654612394174 693.4347479330943 L468.1514754764769 693.2504802497551 M680.0474282686207 535.6859465573187 L679.9056285020996 535.5484195340588 M17.7735572389317 693.4312108020613 L17.591007568593472 693.2504802497551 M922.8059888830303 0.3716514106836257 L922.6953702170007 0.2974558763958157 M532.6337438239974 383.40790784594617 L532.569484360286 383.32832239770323 M127.2209522477119 383.40394962788537 L127.27580788746559 383.32832239770323 M263.74674083259146 0.3716514106836257 L263.85744198830497 0.2974558763958157 M264.31055782163884 383.40394962788537 L264.36582590981175 383.32832239770323 M678.8994193386176 204.41316048553017 L678.9531201227974 204.3585876067351 M468.1503206209032 437.8627980559254 L467.9654612394174 437.6796251988584 M923.3203945514574 285.8111357306659 L922.9364050731815 285.42306192590047 M263.23068537048755 285.7978293805894 L263.61615966307255 285.42306192590047 M432.56682819246623 285.7978293805894 L432.89126011900953 285.4372946674381 M127.26211459994813 76.48077358740034 L127.2209522477119 76.44152827641506 M532.5831776478034 76.48077358740034 L532.6243400000395 76.44152827641506 M264.3521326222942 76.48077358740034 L264.3138574089924 76.44489697263691 M467.28475636836856 382.4250907232001 L467.24796596937585 382.38677180367574 M530.6052400086845 693.063601826844 L530.6475572164945 693.0203982977978 M758.2167974073163 848.6822923640921 L758.6221517137067 848.2607000319184 M264.12470856394697 437.12623262700185 L264.025143515552 437.0236558270444 M433.9760819511912 763.422780639766 L434.0836484989187 763.3137190995812" class="content-lines s_0_05 idy_1" stroke-width="2.5px" stroke="#d5670b" stroke-linecap="round" style="display: none;"></path><path d="" class="content-lines s_1 idy_1" stroke-width="2.5px" stroke="#d5670b" stroke-linecap="round" style="display: none;"></path><path d="M531.2909767504476 439.79482955660376 L529.5723866773221 438.12328249128564 M924.6377548023844 717.9096734638536 L923.2438441248537 716.4171726027305" class="content-lines s_2 idy_1" stroke-width="2.5px" stroke="#d5670b" stroke-linecap="round"></path><path d="M101.22119377750619 999.894896677876 L101.22705054505883 999.8876539809988 M758.8318404900283 999.894896677876 L758.8259837224757 999.8876539809988 M18.3315174604264 999.894896677876 L18.337374227979048 999.8876539809988 M532.5265897246891 999.894896677876 L532.5324464922417 999.8876539809988 M18.337374227979048 848.1015291354325 L18.3315174604264 848.0943706559609 M101.22705054505883 848.1015291354325 L101.22119377750619 848.0943706559609 M18.337374227979048 139.65839735961595 L18.3315174604264 139.65123888014432 M758.8259837224757 139.65839735961595 L758.8318404900283 139.65123888014432" class="content-lines s_0 idy_2" stroke-width="2.5px" stroke="#2ebd40" stroke-linecap="round" style="display: none;"></path><path d="M164.1371480082701 0.5687201396660839 L164.12683679779008 0.5581929639726013 M382.3078435810818 0.5337699163636671 L382.29464523166735 0.5212215229370258" class="content-lines s_0_01 idy_2" stroke-width="2.5px" stroke="#2ebd40" stroke-linecap="round" style="display: none;"></path><path d="M264.3282106139806 605.2975274611906 L264.3138574089924 605.2814419367309 M680.0554297679532 605.35353203588 L680.0745673746042 605.3370254243926" class="content-lines s_0_02 idy_2" stroke-width="2.5px" stroke="#2ebd40" stroke-linecap="round" style="display: none;"></path><path d="M680.0745673746042 501.0251784777367 L680.0461909233632 501.0002501256945 M921.5990823187652 501.0223150859481 L921.6242416723364 501.0002501256945" class="content-lines s_0_03 idy_2" stroke-width="2.5px" stroke="#2ebd40" stroke-linecap="round" style="display: none;"></path><path d="M922.2697234483855 382.8348084011916 L922.6039716473058 382.5100660853982 M264.2830887569201 382.8348084011916 L263.94884055799986 382.5100660853982 M915.3248344762004 536.0178473525837 L915.5642195387045 535.7966082282089" class="content-lines s_0_05 idy_2" stroke-width="2.5px" stroke="#2ebd40" stroke-linecap="round" style="display: none;"></path><path d="" class="content-lines s_1 idy_2" stroke-width="2.5px" stroke="#2ebd40" stroke-linecap="round" style="display: none;"></path><path d="M0.3485189142245871 999.4737254327301 L17.551495010034046 982.3039018766165 M266.329080385207 715.7978378023299 L287.10319987382377 694.2694266394813 M589.7084385626733 382.3542638851342 L632.6033216285971 339.8070410804082 M102.12899274816692 873.5665987032204 L127.0030969926901 848.7348440251541 M221.37599721778795 758.8931474823628 L263.2893355356979 716.420625516358 M625.8636669898062 339.35748856959253 L678.5530451561727 286.05713477227187 M211.4345879904259 763.2890433997557 L218.11765470610246 756.4302094571094 M761.1724027793084 550.8071817234755 L759.1319379598386 548.7355177643984 M468.1742426292168 500.3831049778382 L529.4438677498991 439.8588347848204 M416.98733156431456 550.4949035837033 L431.35027033519185 536.2599723935344 M433.53459716327876 535.0762967585563 L467.13858464860385 501.04067448035755 M362.28759731308 604.9725324931806 L416.5726559236502 549.1133170456872 M719.1284832918795 244.66032172733264 L758.7529803522771 204.43008818404542 M923.2438441248537 76.37634400452077 L947.1741838965619 51.762712406823994 M761.781506604784 203.92865775141206 L824.7706291851141 140.02196389936694 M885.9798718572255 904.3852003068882 L915.2662668006739 874.5462155645556 M18.199698945649857 981.9573472527861 L88.74066959186085 910.3298543123101 M288.8980104148175 692.6866447196107 L361.6016131022654 618.3913970235885 M719.0071409669506 284.5354946888293 L680.1111103045453 244.7250006947936 M129.0479337654033 847.7381310304926 L210.3913409588997 765.355064792661 M825.5144386643007 138.53190534300484 L885.9255936452587 77.08840216842975 M88.78711128386284 618.3675634978183 L100.53471462858856 606.3776999047501 M538.4693115279003 435.0678750180015 L588.9421918894823 383.4583540718695 M948.2743488099379 53.35130532767732 L999.5251893798162 0.6860349855945742" class="content-lines s_2 idy_2" stroke-width="2.5px" stroke="#2ebd40" stroke-linecap="round"></path><path d="M656.9029677148576 0.5712466618325607 L656.906844729998 0.5672884437718722 M361.78309040671377 874.3522628795783 L361.788617215531 874.3466203134067 M210.84973613199935 848.1132353548037 L210.85526294081663 848.107592788632 M680.0310128215366 203.9552704515653 L680.03752950656 203.948617276527 M211.33048600941967 203.9552704515653 L211.33700269444302 203.948617276527 M467.3193195458976 203.9552704515653 L467.3128028608742 203.948617276527 M432.92334860602335 203.9552704515653 L432.9168319209999 203.948617276527 M921.6393372844792 203.9552704515653 L921.6328205994558 203.948617276527 M434.1240684440004 438.02584295306644 L434.11944902170535 438.0211267783558 M761.2649562045771 765.1632175428224 L761.261409148172 765.1595961943839 M761.2637188593194 437.50083164687976 L761.2604192719658 437.4974629506578" class="content-lines s_0 idy_3" stroke-width="2.5px" stroke="#094b09" stroke-linecap="round" style="display: none;"></path><path d="M127.1444843107921 694.2007052365541 L127.15586788716205 694.1890832345885 M355.54299329325875 694.2007052365541 L355.53169220657264 694.1890832345885 M304.9705478832817 694.2007052365541 L304.9818489699678 694.1890832345885 M108.50008347956005 694.2007052365541 L108.51138456624615 694.1890832345885" class="content-lines s_0_01 idy_3" stroke-width="2.5px" stroke="#094b09" stroke-linecap="round" style="display: none;"></path><path d="M211.35490295583634 139.26097542283458 L211.3741230521711 139.2438792895083 M921.6150028277464 605.35353203588 L921.5990823187652 605.3398888161812 M211.35490295583634 605.35353203588 L211.3708234648175 605.3398888161812 M211.3708234648175 848.2567418138576 L211.35490295583634 848.2430985941588 M921.5990823187652 848.2567418138576 L921.6150028277464 848.2430985941588 M680.0554297679532 715.881718338256 L680.0713502769344 715.868075118557 M211.35490295583634 715.881718338256 L211.3708234648175 715.868075118557 M921.6150028277464 715.881718338256 L921.5990823187652 715.868075118557 M680.0554297679532 139.26097542283458 L680.0708553388313 139.2478375075691 M921.6150028277464 139.26097542283458 L921.5995772568682 139.2478375075691" class="content-lines s_0_02 idy_3" stroke-width="2.5px" stroke="#094b09" stroke-linecap="round" style="display: none;"></path><path d="" class="content-lines s_0_03 idy_3" stroke-width="2.5px" stroke="#094b09" stroke-linecap="round" style="display: none;"></path><path d="" class="content-lines s_0_05 idy_3" stroke-width="2.5px" stroke="#094b09" stroke-linecap="round" style="display: none;"></path><path d="" class="content-lines s_1 idy_3" stroke-width="2.5px" stroke="#094b09" stroke-linecap="round" style="display: none;"></path><path d="M255.98355419671213 725.3781572052621 L254.4931305890885 723.8512956426757 M915.6288914508351 910.3099790046008 L921.3234842850553 904.4647857551312" class="content-lines s_2 idy_3" stroke-width="2.5px" stroke="#094b09" stroke-linecap="round"></path></g></svg></g><svg width="100" height="5" x="0" y="0" viewBox="0 0 100 5" preserveAspectRatio="none"><polygon points="5,0 95,0 100,5 0,5" stroke="none" style="fill: rgb(244, 244, 244);"></polygon></svg><svg width="5" height="100" x="95" y="0" viewBox="0 0 5 100" preserveAspectRatio="none"><polygon points="0,0 5,5 5,95 0,100" stroke="none" style="fill: rgb(244, 244, 244);"></polygon></svg><svg width="100" height="5" x="0" y="95" viewBox="0 0 100 5" preserveAspectRatio="none"><polygon points="0,0 100,0 95,5 5,5" stroke="none" style="fill: rgb(244, 244, 244);"></polygon></svg><svg width="5" height="100" x="0" y="0" viewBox="0 0 5 100" preserveAspectRatio="none"><polygon points="5,0 5,100 0,95 0,5" stroke="#f4f4f4" stroke-width="0px" style="fill: rgb(244, 244, 244);"></polygon></svg><svg class="axis left-axis" width="5" height="90" x="0" y="5" viewBox="0 0 20 500" preserveAspectRatio="none"><g transform="translate(0,500)rotate(-90)"><line x1="50" y1="15" x2="50" y2="20" stroke-width="0.5" stroke="black"></line><text x="50" y="12" text-anchor="middle" font-family="sans-serif" font-size="6.5pt">1.2 M</text><line x1="100" y1="15" x2="100" y2="20" stroke-width="0.5" stroke="black"></line><text x="100" y="12" text-anchor="middle" font-family="sans-serif" font-size="6.5pt">2.4 M</text><line x1="150" y1="15" x2="150" y2="20" stroke-width="0.5" stroke="black"></line><text x="150" y="12" text-anchor="middle" font-family="sans-serif" font-size="6.5pt">3.6 M</text><line x1="200" y1="15" x2="200" y2="20" stroke-width="0.5" stroke="black"></line><text x="200" y="12" text-anchor="middle" font-family="sans-serif" font-size="6.5pt">4.7 M</text><line x1="250" y1="15" x2="250" y2="20" stroke-width="0.5" stroke="black"></line><text x="250" y="12" text-anchor="middle" font-family="sans-serif" font-size="6.5pt">5.9 M</text><line x1="300" y1="15" x2="300" y2="20" stroke-width="0.5" stroke="black"></line><text x="300" y="12" text-anchor="middle" font-family="sans-serif" font-size="6.5pt">7.1 M</text><line x1="350" y1="15" x2="350" y2="20" stroke-width="0.5" stroke="black"></line><text x="350" y="12" text-anchor="middle" font-family="sans-serif" font-size="6.5pt">8.3 M</text><line x1="400" y1="15" x2="400" y2="20" stroke-width="0.5" stroke="black"></line><text x="400" y="12" text-anchor="middle" font-family="sans-serif" font-size="6.5pt">9.5 M</text><line x1="450" y1="15" x2="450" y2="20" stroke-width="0.5" stroke="black"></line><text x="450" y="12" text-anchor="middle" font-family="sans-serif" font-size="6.5pt">10.7 M</text></g></svg><svg class="axis bottom-axis" width="90" height="5" x="5" y="95" viewBox="0 0 500 20" preserveAspectRatio="none"><line x1="50" y1="0" x2="50" y2="5" stroke-width="0.5" stroke="black"></line><text x="50" y="15" text-anchor="middle" font-family="sans-serif" font-size="6.5pt">1.2 M</text><line x1="100" y1="0" x2="100" y2="5" stroke-width="0.5" stroke="black"></line><text x="100" y="15" text-anchor="middle" font-family="sans-serif" font-size="6.5pt">2.4 M</text><line x1="150" y1="0" x2="150" y2="5" stroke-width="0.5" stroke="black"></line><text x="150" y="15" text-anchor="middle" font-family="sans-serif" font-size="6.5pt">3.6 M</text><line x1="200" y1="0" x2="200" y2="5" stroke-width="0.5" stroke="black"></line><text x="200" y="15" text-anchor="middle" font-family="sans-serif" font-size="6.5pt">4.8 M</text><line x1="250" y1="0" x2="250" y2="5" stroke-width="0.5" stroke="black"></line><text x="250" y="15" text-anchor="middle" font-family="sans-serif" font-size="6.5pt">6.1 M</text><line x1="300" y1="0" x2="300" y2="5" stroke-width="0.5" stroke="black"></line><text x="300" y="15" text-anchor="middle" font-family="sans-serif" font-size="6.5pt">7.3 M</text><line x1="350" y1="0" x2="350" y2="5" stroke-width="0.5" stroke="black"></line><text x="350" y="15" text-anchor="middle" font-family="sans-serif" font-size="6.5pt">8.5 M</text><line x1="400" y1="0" x2="400" y2="5" stroke-width="0.5" stroke="black"></line><text x="400" y="15" text-anchor="middle" font-family="sans-serif" font-size="6.5pt">9.7 M</text><line x1="450" y1="0" x2="450" y2="5" stroke-width="0.5" stroke="black"></line><text x="450" y="15" text-anchor="middle" font-family="sans-serif" font-size="6.5pt">10.9 M</text></svg><svg class="top-axis axis" width="90" height="5" x="5" y="0" viewBox="0 0 500 20" preserveAspectRatio="none"><text x="250" y="7.5" font-size="6pt" font-family="sans-serif" font-style="italic" text-anchor="middle">1206.assembly.final</text><svg x="0" y="0" width="9.037239802790264" height="100%"></svg><svg x="9.037239802790264" y="0" width="41.45213849555974" height="100%"><text x="20.72606924777987" y="17" text-anchor="middle" font-family="sans-serif" font-size="6pt">SU1206_...</text></svg><line x1="9.037239802790264" x2="9.037239802790264" y1="12" y2="20" stroke="black" stroke-width="0.5"></line><svg x="50.489378298350005" y="0" width="13.281952708994204" height="100%"><text x="6.640976354497102" y="17" text-anchor="middle" font-family="sans-serif" font-size="6pt">S...</text></svg><line x1="50.489378298350005" x2="50.489378298350005" y1="12" y2="20" stroke="black" stroke-width="0.5"></line><svg x="63.77133100734421" y="0" width="41.70484564200401" height="100%"><text x="20.852422821002005" y="17" text-anchor="middle" font-family="sans-serif" font-size="6pt">SU1206_...</text></svg><line x1="63.77133100734421" x2="63.77133100734421" y1="12" y2="20" stroke="black" stroke-width="0.5"></line><svg x="105.47617664934822" y="0" width="26.855135246786034" height="100%"><text x="13.427567623393017" y="17" text-anchor="middle" font-family="sans-serif" font-size="6pt">SU12...</text></svg><line x1="105.47617664934822" x2="105.47617664934822" y1="12" y2="20" stroke="black" stroke-width="0.5"></line><svg x="132.33131189613425" y="0" width="11.402796466273912" height="100%"></svg><line x1="132.33131189613425" x2="132.33131189613425" y1="12" y2="20" stroke="black" stroke-width="0.5"></line><svg x="143.73410836240816" y="0" width="37.1990116416041" height="100%"><text x="18.59950582080205" y="17" text-anchor="middle" font-family="sans-serif" font-size="6pt">SU1206...</text></svg><line x1="143.73410836240816" x2="143.73410836240816" y1="12" y2="20" stroke="black" stroke-width="0.5"></line><svg x="180.93312000401227" y="0" width="35.70240130769247" height="100%"><text x="17.851200653846234" y="17" text-anchor="middle" font-family="sans-serif" font-size="6pt">SU1206...</text></svg><line x1="180.93312000401227" x2="180.93312000401227" y1="12" y2="20" stroke="black" stroke-width="0.5"></line><svg x="216.63552131170474" y="0" width="17.196913104047212" height="100%"><text x="8.598456552023606" y="17" text-anchor="middle" font-family="sans-serif" font-size="6pt">S...</text></svg><line x1="216.63552131170474" x2="216.63552131170474" y1="12" y2="20" stroke="black" stroke-width="0.5"></line><svg x="233.83243441575195" y="0" width="32.319375638882605" height="100%"><text x="16.159687819441302" y="17" text-anchor="middle" font-family="sans-serif" font-size="6pt">SU120...</text></svg><line x1="233.83243441575195" x2="233.83243441575195" y1="12" y2="20" stroke="black" stroke-width="0.5"></line><svg x="266.15181005463455" y="0" width="28.50282543665088" height="100%"><text x="14.25141271832544" y="17" text-anchor="middle" font-family="sans-serif" font-size="6pt">SU12...</text></svg><line x1="266.15181005463455" x2="266.15181005463455" y1="12" y2="20" stroke="black" stroke-width="0.5"></line><svg x="294.65463549128543" y="0" width="45.16508165488824" height="100%"><text x="22.58254082744412" y="17" text-anchor="middle" font-family="sans-serif" font-size="6pt">SU1206_c...</text></svg><line x1="294.65463549128543" x2="294.65463549128543" y1="12" y2="20" stroke="black" stroke-width="0.5"></line><svg x="339.8197171461737" y="0" width="39.745963119852206" height="100%"><text x="19.872981559926103" y="17" text-anchor="middle" font-family="sans-serif" font-size="6pt">SU1206...</text></svg><line x1="339.8197171461737" x2="339.8197171461737" y1="12" y2="20" stroke="black" stroke-width="0.5"></line><svg x="379.5656802660259" y="0" width="32.98110788264819" height="100%"><text x="16.490553941324094" y="17" text-anchor="middle" font-family="sans-serif" font-size="6pt">SU120...</text></svg><line x1="379.5656802660259" x2="379.5656802660259" y1="12" y2="20" stroke="black" stroke-width="0.5"></line><svg x="412.54678814867407" y="0" width="48.4755988916026" height="100%"><text x="24.2377994458013" y="17" text-anchor="middle" font-family="sans-serif" font-size="6pt">SU1206c...</text></svg><line x1="412.54678814867407" x2="412.54678814867407" y1="12" y2="20" stroke="black" stroke-width="0.5"></line><svg x="461.02238704027667" y="0" width="38.97761295972333" height="100%"><text x="19.488806479861665" y="17" text-anchor="middle" font-family="sans-serif" font-size="6pt">SU1206...</text></svg><line x1="461.02238704027667" x2="461.02238704027667" y1="12" y2="20" stroke="black" stroke-width="0.5"></line></svg><svg class="right-axis" width="5" height="90" x="95" y="5" viewBox="0 0 20 500" preserveAspectRatio="none"><g transform="translate(20)rotate(90)"><text x="250" y="7.5" font-size="6pt" font-family="sans-serif" font-style="italic" text-anchor="middle">966.assembly.final</text><svg x="218.7208976227953" y="0" width="31.610287324522517" height="100%"><text x="15.805143662261258" y="17" text-anchor="middle" font-family="sans-serif" font-size="6pt">10</text></svg><line x1="218.7208976227953" x2="218.7208976227953" y1="12" y2="20" stroke="black" stroke-width="0.5" class="whereis"></line><svg x="491.02785659123316" y="0" width="8.97214340876684" height="100%"></svg><line x1="491.02785659123316" x2="491.02785659123316" y1="12" y2="20" stroke="black" stroke-width="0.5" class="whereis"></line><svg x="437.1030728404762" y="0" width="53.924783750756944" height="100%"><text x="26.962391875378472" y="17" text-anchor="middle" font-family="sans-serif" font-size="6pt">CBS7001_c...</text></svg><line x1="437.1030728404762" x2="437.1030728404762" y1="12" y2="20" stroke="black" stroke-width="0.5" class="whereis"></line><svg x="423.9783797076477" y="0" width="13.124693132828497" height="100%"><text x="6.562346566414249" y="17" text-anchor="middle" font-family="sans-serif" font-size="6pt">C...</text></svg><line x1="423.9783797076477" x2="423.9783797076477" y1="12" y2="20" stroke="black" stroke-width="0.5" class="whereis"></line><svg x="382.49250675634136" y="0" width="41.48587295130636" height="100%"><text x="20.74293647565318" y="17" text-anchor="middle" font-family="sans-serif" font-size="6pt">CBS7001...</text></svg><line x1="382.49250675634136" x2="382.49250675634136" y1="12" y2="20" stroke="black" stroke-width="0.5" class="whereis"></line><svg x="358.06082686333116" y="0" width="24.431679893010198" height="100%"><text x="12.215839946505099" y="17" text-anchor="middle" font-family="sans-serif" font-size="6pt">CBS...</text></svg><line x1="358.06082686333116" x2="358.06082686333116" y1="12" y2="20" stroke="black" stroke-width="0.5" class="whereis"></line><svg x="346.9251383060342" y="0" width="11.13568855729693" height="100%"><text x="5.567844278648465" y="17" text-anchor="middle" font-family="sans-serif" font-size="6pt">06</text></svg><line x1="346.9251383060342" x2="346.9251383060342" y1="12" y2="20" stroke="black" stroke-width="0.5" class="whereis"></line><svg x="302.8217041728882" y="0" width="44.10343413314604" height="100%"><text x="22.05171706657302" y="17" text-anchor="middle" font-family="sans-serif" font-size="6pt">CBS7001...</text></svg><line x1="302.8217041728882" x2="302.8217041728882" y1="12" y2="20" stroke="black" stroke-width="0.5" class="whereis"></line><svg x="267.6559685296399" y="0" width="35.1657356432483" height="100%"><text x="17.58286782162415" y="17" text-anchor="middle" font-family="sans-serif" font-size="6pt">CBS70...</text></svg><line x1="267.6559685296399" x2="267.6559685296399" y1="12" y2="20" stroke="black" stroke-width="0.5" class="whereis"></line><svg x="250.3311849473178" y="0" width="17.324783582322084" height="100%"><text x="8.662391791161042" y="17" text-anchor="middle" font-family="sans-serif" font-size="6pt">C...</text></svg><line x1="250.3311849473178" x2="250.3311849473178" y1="12" y2="20" stroke="black" stroke-width="0.5" class="whereis"></line><svg x="191.59472394797723" y="0" width="27.126173674818062" height="100%"><text x="13.563086837409031" y="17" text-anchor="middle" font-family="sans-serif" font-size="6pt">CBS...</text></svg><line x1="191.59472394797723" x2="191.59472394797723" y1="12" y2="20" stroke="black" stroke-width="0.5" class="whereis"></line><svg x="142.50052425334957" y="0" width="49.09419969462766" height="100%"><text x="24.54709984731383" y="17" text-anchor="middle" font-family="sans-serif" font-size="6pt">CBS7001_...</text></svg><line x1="142.50052425334957" x2="142.50052425334957" y1="12" y2="20" stroke="black" stroke-width="0.5" class="whereis"></line><svg x="102.0667793495553" y="0" width="40.43374490379426" height="100%"><text x="20.21687245189713" y="17" text-anchor="middle" font-family="sans-serif" font-size="6pt">CBS700...</text></svg><line x1="102.0667793495553" x2="102.0667793495553" y1="12" y2="20" stroke="black" stroke-width="0.5" class="whereis"></line><svg x="69.76582508213306" y="0" width="32.30095426742224" height="100%"><text x="16.15047713371112" y="17" text-anchor="middle" font-family="sans-serif" font-size="6pt">CBS70...</text></svg><line x1="69.76582508213306" x2="69.76582508213306" y1="12" y2="20" stroke="black" stroke-width="0.5" class="whereis"></line><svg x="38.31959326361823" y="0" width="31.446231818514832" height="100%"><text x="15.723115909257416" y="17" text-anchor="middle" font-family="sans-serif" font-size="6pt">CBS7...</text></svg><line x1="38.31959326361823" x2="38.31959326361823" y1="12" y2="20" stroke="black" stroke-width="0.5" class="whereis"></line><svg x="0" y="0" width="38.31959326361823" height="100%"><text x="19.159796631809115" y="17" text-anchor="middle" font-family="sans-serif" font-size="6pt">CBS700...</text></svg></g></svg></svg>